<svg version="1.1" xmlns="http://www.w3.org/2000/svg" viewBox="0 0 405.96883523431086 134.38835462683846" width="811.9376704686217" height="268.7767092536769">
  <!-- svg-source:excalidraw -->
  
  <defs>
    <style class="style-fonts">
      @font-face {
        font-family: "Virgil";
        src: url("https://excalidraw.com/Virgil.woff2");
      }
      @font-face {
        font-family: "Cascadia";
        src: url("https://excalidraw.com/Cascadia.woff2");
      }
    </style>
  </defs>
  <g stroke-linecap="round" transform="translate(125.68301301859469 28.839910151391905) rotate(0 73.04609026227695 47.77422223772328)"><path d="M0.2 -1.35 C33.17 -0.9, 69.88 0.47, 146.05 0.53 M0.56 -0.03 C51.66 1.33, 102.41 1.76, 145.59 -0.05 M144.13 -0.3 C147.26 34.08, 147.89 72.64, 147.14 96.67 M146.74 0.17 C146.27 21.37, 145.98 42.68, 146.75 94.75 M148.03 96.31 C86.7 98.24, 29.09 98.47, 0.06 94.29 M146.79 95.18 C98.96 95.6, 50.4 94.21, -0.32 95.95 M-0.92 96.09 C-0.62 71.15, -1.21 46.66, -1.07 1.33 M0.45 96.26 C0.45 68.41, -0.28 42.9, 0.89 -0.73" stroke="#364fc7" stroke-width="4" fill="none"></path></g><g transform="translate(145.91195261994835 55.54344495887017) rotate(0 53.22596740722656 22.5)"><text x="53.22596740722656" y="0" font-family="Virgil, Segoe UI Emoji" font-size="36px" fill="#364fc7" text-anchor="middle" style="white-space: pre;" direction="ltr" dominant-baseline="text-before-edge">evolve</text></g><g stroke-linecap="round"><g transform="translate(279.3233241235055 78.47618421668221) rotate(0 57.70513925958818 -0.8458793152163935)"><path d="M-1.24 -1.91 C27.73 0.13, 53.28 1.1, 116.65 -2.13 M0.22 0.36 C26.52 0.72, 53.48 -0.23, 116.36 0.43" stroke="#364fc7" stroke-width="4" fill="none"></path></g><g transform="translate(279.3233241235055 78.47618421668221) rotate(0 57.70513925958818 -0.8458793152163935)"><path d="M86.89 8.63 C95.69 7.86, 101.1 6.6, 117.41 -1.25 M88.34 10.9 C94.19 8.98, 100.75 5.78, 117.12 1.31" stroke="#364fc7" stroke-width="4" fill="none"></path></g><g transform="translate(279.3233241235055 78.47618421668221) rotate(0 57.70513925958818 -0.8458793152163935)"><path d="M86.99 -11.89 C95.79 -7.93, 101.17 -4.46, 117.41 -1.25 M88.44 -9.62 C94.38 -6.75, 100.92 -5.16, 117.12 1.31" stroke="#364fc7" stroke-width="4" fill="none"></path></g></g><mask></mask><g stroke-linecap="round"><g transform="translate(12.480128808681684 109.59317119977004) rotate(0 52.83151719115273 -0.853962589071557)"><path d="M-1.91 1.07 C32.55 0.17, 66.71 0.81, 105.02 -2.77 M0.36 -0.47 C38.79 -1.25, 75.94 -0.5, 107.58 -1.86" stroke="#364fc7" stroke-width="4" fill="none"></path></g><g transform="translate(12.480128808681684 109.59317119977004) rotate(0 52.83151719115273 -0.853962589071557)"><path d="M77.74 10.17 C87.84 5.83, 97.57 3.52, 105.9 -3.19 M80.01 8.63 C90.39 4.63, 99.49 1.99, 108.46 -2.28" stroke="#364fc7" stroke-width="4" fill="none"></path></g><g transform="translate(12.480128808681684 109.59317119977004) rotate(0 52.83151719115273 -0.853962589071557)"><path d="M77.22 -10.34 C87.35 -8.31, 97.24 -4.27, 105.9 -3.19 M79.49 -11.88 C90.05 -8.58, 99.34 -3.91, 108.46 -2.28" stroke="#364fc7" stroke-width="4" fill="none"></path></g></g><mask></mask><g stroke-linecap="round"><g transform="translate(10.471405386924744 42.36702618553454) rotate(0 53.95236695134571 -0.0052204628011622844)"><path d="M1.07 -0.54 C25.24 1.55, 51.6 -0.67, 107.46 1.05 M-0.47 0.79 C31.82 -0.46, 65.42 0.45, 108.38 -1.06" stroke="#364fc7" stroke-width="4" fill="none"></path></g><g transform="translate(10.471405386924744 42.36702618553454) rotate(0 53.95236695134571 -0.0052204628011622844)"><path d="M81.49 9.3 C86.95 8.11, 94.52 3.37, 107.05 0.07 M79.95 10.63 C88.2 6.45, 97.77 4.15, 107.96 -2.03" stroke="#364fc7" stroke-width="4" fill="none"></path></g><g transform="translate(10.471405386924744 42.36702618553454) rotate(0 53.95236695134571 -0.0052204628011622844)"><path d="M81.03 -11.22 C86.46 -7.64, 94.15 -7.61, 107.05 0.07 M79.49 -9.88 C87.92 -7.97, 97.63 -4.17, 107.96 -2.03" stroke="#364fc7" stroke-width="4" fill="none"></path></g></g><mask></mask><g transform="translate(300.2443331347613 50.65223283221121) rotate(0 28.869972229003906 12.5)"><text x="0" y="0" font-family="Virgil, Segoe UI Emoji" font-size="20px" fill="#364fc7" text-anchor="start" style="white-space: pre;" direction="ltr" dominant-baseline="text-before-edge">state</text></g><g transform="translate(24.75469836690411 10.333165662963665) rotate(0.6628806179514432 28.869972229003906 12.5)"><text x="0" y="0" font-family="Virgil, Segoe UI Emoji" font-size="20px" fill="#364fc7" text-anchor="start" style="white-space: pre;" direction="ltr" dominant-baseline="text-before-edge">state</text></g><g transform="translate(27.196579806445243 80.24736435744444) rotate(359.46502954282926 26.489974975585938 12.5)"><text x="0" y="0" font-family="Virgil, Segoe UI Emoji" font-size="20px" fill="#364fc7" text-anchor="start" style="white-space: pre;" direction="ltr" dominant-baseline="text-before-edge">event</text></g></svg>