<svg version="1.1" xmlns="http://www.w3.org/2000/svg" viewBox="0 0 399.976891040131 115.54844447544656" width="799.953782080262" height="231.09688895089312">
  <!-- svg-source:excalidraw -->
  
  <defs>
    <style class="style-fonts">
      @font-face {
        font-family: "Virgil";
        src: url("https://excalidraw.com/Virgil.woff2");
      }
      @font-face {
        font-family: "Cascadia";
        src: url("https://excalidraw.com/Cascadia.woff2");
      }
    </style>
  </defs>
  <g stroke-linecap="round" transform="translate(108.53277427617331 10) rotate(0 73.04609026227695 47.77422223772328)"><path d="M-0.18 -0.9 C38.1 0.38, 72.21 -2.96, 144.5 1.61 M-0.5 0.25 C32.75 0.41, 66.68 -0.17, 146.89 -0.21 M144.9 -1.13 C147.18 19.94, 146.45 43.73, 145.07 94.52 M146.36 -0.77 C146.3 21.68, 144.97 42.9, 146.63 96.29 M144.85 96.68 C100.21 93.61, 50.87 95.25, -1.87 93.63 M146.21 96.23 C110.67 97.04, 75.67 96.21, 0.37 95.27 M-1.4 96.38 C0.04 65.69, -1.26 34.5, 1.53 -0.87 M0.9 96.36 C0.67 67.43, -0.05 39.27, 0.77 0.32" stroke="#364fc7" stroke-width="4" fill="none"></path></g><g transform="translate(133.17350390786987 36.70357840401812) rotate(0 48.79798126220703 22.5)"><text x="48.79798126220703" y="0" font-family="Virgil, Segoe UI Emoji" font-size="36px" fill="#364fc7" text-anchor="middle" style="white-space: pre;" direction="ltr" dominant-baseline="text-before-edge">react</text></g><g stroke-linecap="round"><g transform="translate(14.418609166726355 39.57048222317644) rotate(337.41372321963263 42.589111043229195 17.741128688310027)"><path d="M1.49 1.54 C31.92 12.32, 64.31 29.44, 85.43 35.67 M-0.87 -0.18 C21.75 8.38, 45.6 18.29, 86.05 35.29" stroke="#364fc7" stroke-width="4" fill="none"></path></g><g transform="translate(14.418609166726355 39.57048222317644) rotate(337.41372321963263 42.589111043229195 17.741128688310027)"><path d="M57.57 35.41 C66.44 32.75, 77.24 36.7, 84.65 34.83 M55.21 33.68 C63.27 33.39, 72.39 34.32, 85.26 34.45" stroke="#364fc7" stroke-width="4" fill="none"></path></g><g transform="translate(14.418609166726355 39.57048222317644) rotate(337.41372321963263 42.589111043229195 17.741128688310027)"><path d="M65.5 16.48 C71.34 20.97, 79.13 32.11, 84.65 34.83 M63.14 14.75 C69.05 19.39, 76.12 25.22, 85.26 34.45" stroke="#364fc7" stroke-width="4" fill="none"></path></g></g><mask></mask><g transform="translate(16.408897279258326 26.046995768298075) rotate(0 26.489974975585938 12.5)"><text x="0" y="0" font-family="Virgil, Segoe UI Emoji" font-size="20px" fill="#364fc7" text-anchor="start" style="white-space: pre;" direction="ltr" dominant-baseline="text-before-edge">event</text></g><g stroke-linecap="round"><g transform="translate(261.7764571073103 42.451279511433995) rotate(345.94685382675584 62.58137130206677 14.370847017331357)"><path d="M-1.02 -1.79 C30.7 8.57, 62.96 14.43, 125.02 30.12 M-0.56 -0.77 C41.36 10.12, 80.62 19.6, 126.18 30.53" stroke="#364fc7" stroke-width="4" fill="none"></path></g><g transform="translate(261.7764571073103 42.451279511433995) rotate(345.94685382675584 62.58137130206677 14.370847017331357)"><path d="M95.35 32.11 C102.34 34.43, 110.14 31.49, 125.36 29.53 M95.81 33.14 C106.87 32.65, 114.96 30.93, 126.52 29.94" stroke="#364fc7" stroke-width="4" fill="none"></path></g><g transform="translate(261.7764571073103 42.451279511433995) rotate(345.94685382675584 62.58137130206677 14.370847017331357)"><path d="M100.16 12.16 C106.07 19.6, 112.64 21.75, 125.36 29.53 M100.61 13.19 C109.94 19.17, 116.48 23.92, 126.52 29.94" stroke="#364fc7" stroke-width="4" fill="none"></path></g></g><mask></mask><g transform="translate(265.3338058502367 24.808714983611935) rotate(0 45.679962158203125 12.5)"><text x="0" y="0" font-family="Virgil, Segoe UI Emoji" font-size="20px" fill="#364fc7" text-anchor="start" style="white-space: pre;" direction="ltr" dominant-baseline="text-before-edge">commands</text></g></svg>