<svg version="1.1" xmlns="http://www.w3.org/2000/svg" viewBox="0 0 1110.840474446616 1182.8181979235674"
     width="2221.680948893232" height="2365.6363958471347">
    <!-- svg-source:excalidraw -->

    <defs>
        <style>
            @font-face {
            font-family: "Virgil";
            src: url("https://excalidraw.com/Virgil.woff2");
            }
            @font-face {
            font-family: "Cascadia";
            src: url("https://excalidraw.com/Cascadia.woff2");
            }
        </style>
    </defs>
    <g stroke-opacity="0.8" fill-opacity="0.8" stroke-linecap="round"
       transform="translate(364.7564493815105 201.223948016569) rotate(0 188.6046142578125 184.91802978515628)">
        <path d="M52.3 56.06 C52.3 56.06, 52.3 56.06, 52.3 56.06 M52.3 56.06 C52.3 56.06, 52.3 56.06, 52.3 56.06 M28.68 88.43 C43.63 72.29, 55.28 56.64, 66.56 43.87 M29.29 88.63 C42.1 74.19, 55.2 59.63, 67.59 42.89 M23.59 102.36 C36.79 86.59, 48.59 71.07, 85.52 30.32 M22.82 103.61 C36.24 86.81, 50.27 69.7, 85.34 31.15 M18.21 111.88 C46.5 80.18, 71.22 50.06, 95.54 24.62 M18.63 111.64 C46.9 80.62, 75.11 47.32, 95.45 24.01 M17.13 121.97 C42.14 93.34, 69.12 59.98, 104.88 20.55 M16.57 122.94 C44.71 88.39, 72.28 55.58, 103.08 21.67 M11.56 132.21 C49.69 87.15, 90.88 45.75, 109.8 18.45 M12.45 132.7 C42.34 99.38, 72 65.49, 111.26 19.24 M8.23 141.83 C40.09 106, 71 70.07, 120.08 17.77 M8.3 143.23 C48.82 98.32, 88.79 52.79, 118.76 15.4 M7.5 152.32 C35.97 115.59, 63.78 83.07, 125.8 14.65 M6.69 152.94 C40.08 109.42, 76.38 69.19, 126.11 13.27 M6.85 156.9 C40.95 120.26, 77.6 79.63, 134.17 10.18 M5.55 158.89 C32.22 127.34, 59.12 96.68, 134.74 10.87 M3.96 163.67 C36.02 126.69, 68.87 90.8, 140.48 8.48 M5.32 164.19 C46.96 115.67, 89.05 67.48, 141.09 8.42 M5.07 173.23 C40.58 129.71, 77.25 86.76, 146.94 6.74 M3.74 171.38 C39.96 131.35, 75.54 89.46, 148.02 6.61 M4.12 177.56 C48.43 129.46, 92.7 79.41, 154.28 4.42 M4.36 179.23 C63.43 110.94, 121.69 44.21, 153.76 4.84 M2.97 186.26 C36.94 145.2, 75.35 103.44, 161.59 4.49 M3.92 185.28 C55.22 122.02, 108.59 61.98, 159.22 5.15 M3.84 192.91 C50.64 133.65, 99.43 78.62, 165.35 4.88 M2.86 191.69 C64.17 121.42, 125.26 52.36, 166 4.63 M4.5 198.28 C41.69 154.75, 82.27 111.01, 171.34 4.39 M2.89 196.95 C37.55 157.65, 72.07 117.84, 172.05 4.71 M1.15 205.03 C70.78 131.06, 135.66 52.98, 177.63 3.68 M1.62 205.96 C71.18 126.02, 140.63 47.02, 177.49 3.37 M4.08 211.06 C59.54 144.55, 117.97 76.57, 182.8 4.48 M3.27 209.95 C58.86 146.99, 115.15 82.06, 182.8 2.7 M4.83 213.89 C74.93 135.56, 144.97 53.05, 188.51 1.92 M4.98 214.7 C71.1 137.59, 137.46 60.33, 189.31 1.92 M4.25 219.07 C48.12 170.37, 89.19 121.08, 194.59 1.9 M5.36 220.06 C72.03 146.02, 136.84 70.19, 194.75 2.6 M7.54 224.56 C81.88 137.12, 159.84 49.68, 199.5 0.28 M6.24 224.88 C59.79 161.87, 115.76 99.52, 200.66 1.23 M9.69 227.35 C62.19 164.49, 115.49 103.49, 207.13 1.35 M7.93 228.13 C78.68 148.89, 147.73 69.23, 205.9 1.68 M8.61 232.31 C59.16 174.7, 108.16 118.64, 210.46 1.51 M8.94 233.57 C78.84 154.74, 148.19 74.54, 210.51 2.65 M10.76 237.52 C65.62 178.69, 117.18 116.38, 213.18 4.08 M10.01 238.94 C50.86 190.67, 92.26 142.58, 213.99 3.97 M11.8 243.31 C93.61 147.97, 175.19 53.66, 219.1 4.31 M10.82 243.74 C60.71 185.59, 110.71 127.73, 218.97 4.06 M13.7 247.35 C92.52 152.83, 175.22 58.84, 222.17 5.99 M12.12 247.98 C77.58 173, 143.89 95.89, 222.6 5.16 M14.61 252.49 C63.8 192.58, 117.34 131.49, 228.94 5.12 M14.33 251.69 C64.25 192.47, 116.43 134.2, 228.69 6.44 M16.57 257.26 C87.95 174.68, 162.24 90.34, 231.27 7.18 M15.03 257.48 C90.28 172.38, 163.85 87.49, 233.15 7.39 M17.48 261.15 C65.34 206.32, 114.13 150.34, 237.14 7.42 M17.7 260.74 C83.96 184.75, 150.04 109.75, 236.45 8.43 M20.19 262.64 C97.52 172.25, 175.58 82.43, 241.15 10.47 M19.73 263.6 C80.73 194.31, 141.45 124.3, 241.59 10.02 M20.64 268.32 C87.31 193.13, 152.5 117.53, 246.13 9.41 M21.2 267.92 C105.83 172.59, 187.78 77.08, 245.36 10.21 M24.59 271.34 C70.24 219.2, 117.18 167.16, 249.59 13.54 M23.54 272.04 C101.63 181.15, 180.44 90.91, 249.23 12.35 M25.48 274.85 C87.76 205.69, 151.17 134.74, 252.83 15.42 M26.3 274.3 C93.89 200.21, 159.99 123.36, 253.34 14.41 M26.93 277.84 C77.87 223.93, 126.7 168.98, 256.94 17.32 M27.93 278.31 C105.27 189.88, 181.6 103.21, 256.58 16.86 M29.27 283.52 C98.81 204.68, 164.97 127.67, 260.64 17.86 M31.04 281.69 C98.11 204.75, 166.93 125.98, 260.61 16.83 M32.79 284.42 C83.12 230.64, 130.59 174.87, 263.44 20.36 M33.3 285.47 C89.75 221.97, 145.82 159.38, 264.02 19.2 M35.02 288.84 C114.59 201.06, 190.7 111.23, 268.8 21.99 M34.08 289.54 C102.63 209.25, 172.32 129.75, 267.6 21.27 M37.13 294.03 C130.94 186.13, 222.29 81.5, 271.69 22.11 M36.39 293.8 C86.44 234.89, 136.31 175.83, 272.47 22.55 M40.44 296.14 C112.12 213.5, 184.43 128.55, 276.51 25.37 M39.8 296.6 C87.57 241.39, 135.69 187.29, 275.61 24.92 M40.06 299.55 C105.37 228.01, 168.84 154.09, 279.65 26.61 M41.27 300.99 C100.06 232.86, 159.98 163.62, 279.58 26.43 M43.17 303.66 C132.18 205.48, 218.81 103.81, 284.72 26.73 M43.49 303.08 C91.14 246.44, 140.8 189.9, 282.99 27.86 M47.23 306.16 C119.67 223.11, 191.85 139.81, 287.74 30.67 M46.53 306.02 C114.24 231.27, 180.08 155.76, 287.42 29.64 M50.17 307.92 C145.02 200.46, 239.59 94.62, 291.1 31.07 M50.56 308.73 C121.33 225.68, 191.91 145.37, 292.05 31.23 M53.31 310.76 C118.99 240.26, 181.53 166.24, 295.55 32.66 M53.39 310.75 C113.95 241.89, 174.57 172.01, 294.69 33.2 M56.85 312.67 C128.14 230.4, 202.33 145.9, 298.68 36.02 M56.16 313.77 C139.05 219.34, 220.46 126.54, 297.15 35.48 M58.54 317.34 C132.73 230.21, 206.07 142.84, 300.68 38.11 M58.94 317 C127.72 238.02, 196.28 158.59, 300.06 39.19 M61.69 318.85 C148.3 220.86, 233.81 121.62, 302.5 41.96 M61.63 319.44 C109.82 264.81, 158.33 209.1, 303.03 41.07 M65.6 322.45 C128.62 247.95, 195.6 173.52, 306.29 44.48 M64.98 322.71 C141.19 233.04, 219.14 143.59, 306.55 43.62 M68.67 324.31 C128.3 255.27, 188.69 185.08, 310.41 46.89 M67.72 324.66 C124.56 259.39, 181.85 193.2, 310.23 45.3 M69.5 328.46 C162.06 223.58, 251.21 120.13, 312.25 48.01 M70.92 327.1 C131.05 259.61, 191.49 190.72, 313.34 48.76 M74.75 329.64 C124.78 273.44, 174.67 217.17, 316.38 50.92 M73.72 329.92 C167.38 222.62, 260.41 116.25, 316.31 51.02 M76.27 331.89 C153.18 241.04, 232.49 153.14, 320.06 53.79 M77.07 333.18 C168.64 228.69, 261.14 122.55, 318.79 54.13 M78.65 336.36 C151.34 256.01, 221.44 173.13, 323.04 55.39 M79.5 336.13 C146.78 259.75, 213.97 182.84, 322.86 56.63 M83.78 337.7 C133.36 280.06, 184.08 218.7, 325.62 60.16 M82.1 338.07 C176.47 231.93, 270.07 124.56, 325.01 58.77 M86.99 340.72 C162.19 255.07, 236.66 169.24, 327.88 62.26 M86.14 340.3 C165.52 248.57, 244.53 157.25, 328.59 62.12 M89.22 341.77 C144.14 277.45, 200.3 212.03, 330.22 62.96 M89.92 341.89 C179.39 243.08, 266.31 142.25, 330.88 63.65 M94.52 343.88 C165 263.19, 233.35 184.45, 335.07 67.12 M93.93 343.81 C154.83 276.2, 213.16 208.42, 334.28 66.49 M96.28 346.54 C178.79 253.73, 259.88 160.01, 336.85 69.1 M97.72 345.59 C183.75 249.46, 268.13 151.74, 336.41 69.81 M100.09 348.22 C151.37 290.31, 199.89 233.39, 338.04 74.31 M100.59 348.12 C181.71 257.45, 260.36 166.7, 339.61 73.6 M105.58 350.27 C196.95 242.85, 289.89 135.01, 340.32 76.55 M104.19 349.46 C159.57 285.07, 215.41 221.29, 342.17 77.47 M110.02 351.3 C172.19 278.1, 234.61 203.2, 344.53 81.27 M108.79 350.63 C197.6 250.77, 284.75 150.86, 344.01 80.79 M112.51 351.5 C165.44 291.59, 217.19 232.36, 345.96 82.93 M113.31 352 C167.97 291.38, 220.12 230.94, 346.16 84.15 M115.94 353.36 C169.89 294.06, 224.21 231.87, 348.28 87.48 M116.02 354.05 C195.13 264.68, 272.86 176.07, 347.63 87.26 M121.13 355.96 C202.76 258.39, 287.85 159.79, 351.39 91.63 M119.74 356.18 C208.5 253.09, 297.11 150.52, 350.01 91.29 M122.68 359.29 C180.32 291.64, 238.12 223.09, 351.75 93.81 M124.2 357.5 C191.84 281.95, 258.34 205.1, 352.25 94.01 M126.43 360.61 C200.52 275.08, 273.04 189.74, 355.97 99.12 M127.34 360.35 C197.65 278.8, 267.95 198.63, 355.37 97.38 M131.83 362.28 C188 292.26, 249.79 223.19, 358.61 100.68 M131.24 361.45 C197.72 285.91, 263.98 210.35, 357.9 101.41 M134.28 362.1 C201.58 285.17, 269.14 208.56, 360.19 106.63 M135.04 362.47 C185.13 304.49, 236.5 244.74, 358.55 105.19 M140.23 362.76 C186.97 309.36, 234.49 256.16, 361.28 109.67 M140.87 362.71 C202.84 292, 264.5 220.53, 361.58 108.71 M144.6 363.49 C201.53 295.96, 260.09 231.06, 364.41 112.79 M145.33 364.7 C213.68 283.54, 284.22 202.74, 364.31 112.43 M148.44 363.59 C235.01 267.78, 315.83 174.39, 364.47 115.23 M149.45 364.55 C233.73 270.19, 317.37 173.99, 365.76 115.87 M153.08 364.64 C216.22 294.74, 277.9 221.14, 366.18 119.91 M153.57 365.74 C238.48 268.89, 322.37 171.69, 366.74 121.24 M157.01 368.08 C220.06 290.81, 284.93 216.94, 367.58 126.09 M158.63 367.31 C206.82 311.38, 254.98 256.43, 367.85 125.46 M164.13 367.84 C215.51 309.2, 265.79 251.99, 370.38 131.09 M162.76 367.06 C207.11 314.67, 251.83 263.83, 369.08 130.43 M168.38 369.45 C215.28 312.66, 265.14 257, 370.41 134.08 M167.11 368.27 C213.76 317.11, 258.13 265.28, 370.89 133.8 M171.48 369.57 C223.84 313.22, 275.76 255.02, 372.75 139.69 M172.1 368.4 C246.15 286.55, 319.34 203.14, 372.61 139.62 M175.66 370.54 C230.72 306.85, 285.41 246.92, 372.69 145.65 M177.16 369.67 C227.74 310.49, 278.59 252.49, 372.72 143.98 M182.91 369.48 C229.67 316.19, 274.69 260.9, 374.42 147.87 M182.37 368.97 C252.87 285.68, 324.96 203.72, 374.95 147.62 M189.5 368.14 C234 314.29, 281.48 262.28, 376.74 153.31 M189.23 367.83 C232.53 317.65, 276.49 266.63, 376.25 153.57 M195.96 369.34 C235.65 319.22, 278.54 269.52, 377.98 157.04 M195.31 368.32 C233.72 323.42, 272.74 279.49, 377.92 157.57 M201.4 367.93 C240.33 322.47, 278.67 275.57, 378.98 161.8 M200.63 367.22 C255.62 302.43, 312.33 237.6, 379.05 162.63 M205.98 367.72 C242.24 323.21, 280.12 281.22, 377.23 169.18 M206.69 367.8 C272.53 292.34, 338.93 216.29, 378.45 168.81 M213.06 364.68 C246.93 329.08, 277.62 290.98, 376.01 176.72 M212.42 366.24 C259.59 312.01, 305.68 258.9, 377.03 176.01 M219.21 364.35 C263.26 316.46, 304.33 265.08, 378.1 183.14 M217.91 365.11 C255.75 321.67, 295.49 274.88, 377.9 181.42 M225.09 364.65 C257.22 324.91, 292.75 285.1, 375.37 188.73 M222.86 364.53 C280.72 300.37, 337.96 235.43, 377.45 189.1 M228.64 363.71 C269.79 316.75, 310.4 270.97, 375.34 196.57 M228.93 364.65 C271.46 316.67, 312.71 268.72, 376.94 194.62 M233.18 362.71 C275.8 319.12, 316.27 274.32, 377 200.65 M234.63 365.2 C268.5 324.99, 301.75 284.54, 376.05 201.2 M237.81 366.86 C291.97 304.59, 348.2 240.12, 377.96 206.55 M238.46 367.14 C268.68 331.83, 300.47 296.08, 375.49 208.33 M249.22 361.98 C295.37 308.27, 338.74 257.7, 375.61 214.16 M247.66 362.01 C276.43 331.69, 303.71 299.51, 373.98 216.11 M257.44 359.98 C297.32 312.21, 339.32 264.17, 370.62 225.25 M255.78 358.9 C292.66 313.59, 330.88 271.44, 372.84 225.26 M264.58 354.19 C286.13 330.52, 312.41 300.21, 368.72 231.96 M263.62 354.86 C287.57 326.87, 312.52 299.91, 368.89 234.32 M272.58 353.2 C308.26 310.5, 344.38 267.67, 365.86 244.09 M271.99 352.08 C299.45 319.85, 327.16 288.22, 367.26 242.21 M280.63 348.43 C301.66 326.42, 319.97 303.02, 362.49 251.97 M279.53 347.69 C302.9 322.76, 325.65 296.72, 364.73 252.42 M288.62 343.51 C310.47 318.36, 331.41 294.54, 362.48 260.82 M289.43 344.39 C316.54 313.36, 343.73 281.95, 360.83 261.72 M307.87 331.68 C326.18 310.09, 343.13 286.17, 363.12 268.7 M306.43 330.1 C325.38 307.44, 345.43 285.01, 361.19 267.22 M81.46 337.65 C81.46 337.65, 81.46 337.65, 81.46 337.65 M81.46 337.65 C81.46 337.65, 81.46 337.65, 81.46 337.65 M94.99 344.91 C78.79 331.26, 63.94 315.67, 40.74 296.32 M95.6 342.87 C74.54 326.72, 54.63 309.76, 42.5 297.84 M108.16 348.8 C79.88 327.32, 54.25 302.11, 36.67 286.98 M107.11 349.9 C84.14 328.17, 58.94 306.24, 35.9 286.68 M119.96 354.52 C89.03 327.2, 56 299.79, 27.34 277.11 M120.71 356.37 C102.08 339.94, 82.88 323.01, 28.28 275.19 M128.46 358.35 C89.02 321.9, 45.9 285.39, 22.41 265.74 M129.76 359.37 C97.49 328.88, 63.95 300.48, 21.16 264.45 M135.76 360.08 C104.08 331.37, 70.21 298.89, 16.84 251.85 M138.47 359.36 C109.53 337.52, 84.85 315.03, 14.72 253.35 M146.74 362.73 C118.65 335.86, 89.98 314.28, 11.73 246.56 M143.93 361.13 C100.53 320.25, 54.84 281.24, 12.89 246.98 M151.13 361.25 C106.67 324.09, 62.87 284.14, 10.53 238.13 M152.47 362.77 C103.06 318.61, 52.37 274.58, 10.88 238.87 M157.85 364.86 C116.68 329.78, 79.68 293.09, 9.48 231.94 M159.24 363.15 C114.24 325.7, 70.5 287.85, 9.9 233.2 M166.02 366.27 C105.62 313.45, 46.81 259.24, 8.79 226.21 M167.39 365.49 C124.55 327.14, 81.32 289.28, 7.71 225.75 M177.16 367.92 C143.07 337.3, 107.65 306.9, 6.29 219.82 M174.78 366.53 C118.47 315.9, 60.83 265.88, 5.94 219.69 M182.67 368.17 C133.89 325.63, 81.18 277.82, 4.53 212.53 M183.8 368.76 C113.55 306.57, 41.04 243.6, 5.46 213.37 M189.89 368.29 C129.77 316.4, 66.93 260.85, -0.79 203.09 M189.57 368.34 C133.49 320.34, 79.37 272.69, 0.7 203.05 M194.84 367.57 C134.9 313.59, 73.66 262.4, -0.35 197.63 M193.85 366.06 C143.56 322.61, 92.37 277.75, 1.18 198.67 M201.09 365.42 C133.5 308.5, 67.85 254.3, 2.44 192.16 M199.5 366.52 C140.3 314.24, 79.9 262.09, 1.9 193.36 M205.03 365.8 C148.89 318.82, 94.45 268.78, 0.14 188.1 M205.82 365.34 C128.93 299.79, 51.63 232.94, 1.13 188.14 M210.66 365.62 C166.72 324.7, 122.61 287.06, 2.71 182.19 M210.27 365.68 C132.47 299.74, 53.84 231.62, 1.44 183.47 M216.8 363.9 C133.55 291.22, 46.24 217.44, 1.88 177.62 M216.25 365.22 C145.51 300.8, 71.46 236.91, 1.82 178.8 M221.8 362.6 C147.73 296.79, 70.58 232.31, 3.07 174.69 M221.57 364.47 C169.66 318.22, 118.74 274.17, 3.31 174.45 M227.14 363.23 C165.86 313.64, 105.9 259.29, 2.83 169.73 M227.03 363.55 C149.47 296.71, 72.67 229.51, 2.94 168.14 M232 364.67 C144.16 284.26, 56.29 207.33, 4.63 164.2 M233.35 363.77 C173.59 313.17, 115 262.52, 3.64 164.24 M238.95 362.45 C163.59 299.45, 92.65 235.99, 3.18 160.21 M238.33 362.5 C175.96 306.3, 112.5 250.94, 3.76 158.49 M242.32 359.68 C152 280.69, 62.59 203.08, 4.64 154.24 M242.15 360.79 C156.06 286.6, 71.37 212.91, 3.12 153.82 M246.14 358.32 C183.59 303.96, 122.64 250.04, 3.65 147.91 M246.56 359.24 C152.65 277.49, 59.52 195.82, 3.88 148.72 M250.17 356.77 C187.49 303.53, 126.78 249.03, 6.32 145.42 M250.7 357.71 C182.17 295.44, 112.36 235.46, 6.7 145.11 M254.19 356.25 C178.79 289.77, 100.64 224.36, 6.3 140.36 M254.03 354.91 C190.99 302.3, 128.61 248.48, 7.5 141.4 M256.4 353.38 C175.44 280.55, 94.02 209.7, 8.67 135.85 M256.99 352.83 C177.88 282.55, 95.99 212.28, 8.95 137.53 M262.47 351.15 C166.01 268.78, 73.1 185.78, 9.23 132.45 M261.98 351.36 C207.52 306.84, 154.74 260.79, 10.33 133.39 M266.53 348.27 C213.44 304.9, 159.74 259.8, 11.34 127.4 M266.23 349.5 C212.4 301.78, 157.5 253.53, 12.15 128.26 M271.13 347.32 C211.29 297.46, 151.17 244.28, 14.63 125.07 M269.66 348.2 C193.53 280.59, 116.72 213.84, 14.06 125.16 M274.8 347.46 C204.21 286.36, 134.91 225.36, 13.44 121.56 M274.12 346.61 C218.53 295.81, 162.05 246.48, 14.6 121.13 M278 344.75 C185.1 262.56, 92.55 180.69, 16.42 115.59 M278.74 345.05 C189.05 265.41, 98.53 186.88, 15.81 116.11 M282.26 344.02 C229 294.68, 175.04 246.85, 18.31 111.81 M282.76 343.3 C219.56 286.39, 155.92 231.75, 17.66 112.56 M286.26 341.31 C210.59 277.32, 135.57 212.73, 18.11 107.15 M286.96 341.49 C215.6 279.41, 146.29 218.08, 18.57 107.84 M291.64 340.21 C219.98 277.36, 147.85 216.67, 18.7 102.72 M291.16 339.06 C200.46 260.96, 111.77 184.41, 19.27 103.59 M294.21 336.61 C220.55 270.9, 142.83 206.92, 21.28 100.63 M293.35 336.32 C199.8 254.68, 105.06 172.78, 21.91 99.57 M296.22 333.52 C188.06 240.81, 81.61 148.41, 24.43 95.26 M296.36 333.53 C194.16 246.82, 93.15 159.7, 22.88 96.41 M301.26 330.89 C233.8 275.02, 166.48 217.37, 26.39 92.38 M300.49 330.96 C244.66 281.48, 188.61 232.44, 26.02 94.03 M303.94 329.59 C214.34 249.83, 122.27 172.95, 26.87 90.83 M304.04 328.65 C195.56 237.44, 89.07 144.42, 28.17 89.93 M306.53 325.29 C243.86 271.24, 181.78 217.55, 31.45 86.07 M306.28 326.59 C249.39 274.77, 192.63 226.37, 30.82 87.14 M308.65 324.89 C229.1 253.94, 150.64 184.8, 34.4 83.18 M309.28 323.28 C241.07 266.89, 173.55 207.93, 32.99 83.64 M313.25 320.27 C235.01 251.16, 156.2 182.38, 35.19 80.2 M312.78 321.95 C249.22 267.63, 186.44 213.3, 34.81 80.17 M316.44 319.66 C243.01 254.32, 166.37 187.48, 38.71 77.7 M316.05 319.17 C220.31 236.72, 124.76 153.29, 37.97 77.51 M319.7 317.25 C256.26 260.03, 190.05 202.65, 39.35 73.11 M319.07 316.86 C230.3 238.47, 140.45 161.06, 39.25 72.75 M323.39 313.8 C217.34 223.42, 111.6 131.85, 42.39 70.96 M321.79 313.82 C231.63 235.21, 139.43 154.31, 42.19 70.95 M325.33 311.88 C234.03 230.79, 144.37 152.32, 45.63 67.34 M325.39 311.08 C256.61 251.37, 188.18 192.64, 44.47 67.86 M327.91 308.43 C253.07 244.45, 177.47 177.61, 47.09 64.3 M329.03 308.85 C221.24 216.67, 114.32 124.51, 46.98 63.26 M330.17 305.91 C236.9 223.19, 143.25 139.88, 49.03 60.84 M330.8 305.56 C238.68 226.12, 145.42 144.8, 48.79 60.01 M334.15 302.99 C244.7 224.17, 157.13 145.11, 50.66 55.82 M333.53 302.76 C246.85 224.69, 159.38 148.22, 51.12 57.35 M335.34 297.81 C258.64 229.24, 179.86 159.71, 53.45 54.55 M335.48 298.73 C276.39 250.92, 218.97 201.22, 53.61 54.49 M338.56 295.25 C262.75 229.6, 188.13 164.58, 57.18 52.7 M338.4 295.25 C256.93 224.44, 176.24 154.14, 56.64 51.87 M340.91 292.68 C251.81 217.02, 164.68 139.7, 59.86 48.12 M340.46 292.09 C260.9 223.95, 180.42 153.82, 60.85 48.96 M343.14 288.15 C242.87 201.97, 143.24 114.99, 64.72 47.14 M342.25 288.55 C258.98 216.89, 175.11 143.61, 64.48 47.1 M345 284.91 C279.74 228.78, 217.44 173.22, 65.65 45.02 M344.85 285.7 C270.08 220.11, 192.66 154.06, 66.74 44.08 M346.67 283.29 C291.48 232.37, 236.86 184.6, 70.42 40.89 M346.99 282.68 C263.94 212.15, 180.61 140.19, 70.4 41.99 M350.34 278.61 C252.32 193.85, 154.8 109.41, 73.23 40.21 M349.36 279.68 C274.96 212.98, 199.56 148.57, 73.5 39.16 M350.91 274.63 C266.94 203.69, 181.72 130.83, 75.5 37.62 M351.04 276.07 C285.67 217.4, 218.88 158.93, 76.81 36.81 M355.04 271.56 C289.84 215.98, 224.88 158.92, 79.52 35.08 M353.83 272.16 C285.47 213.75, 216.11 152.87, 80.68 34.24 M357.63 270.3 C255.56 179.51, 155.31 92.85, 83.09 31.32 M356.92 269.24 C286.95 205.64, 214.98 143.83, 82.38 30.97 M359.58 266.97 C253.89 171.06, 148.22 80.73, 86.9 28.38 M358.66 265.56 C249.98 170.75, 141.95 76.94, 85.55 28.99 M361.81 263.81 C260.88 176.71, 163.59 90.89, 90.42 27.81 M361.34 262.9 C278.93 191.63, 198.43 121.46, 90 26.5 M362.26 259.02 C273.62 178.96, 182.69 101.52, 91.7 24.48 M362.12 259.11 C264.96 173.69, 169.31 90.19, 92.28 24.03 M362.66 254.72 C297.27 197.32, 230.3 138.18, 97.31 21.32 M363.13 254.23 C294.91 194.44, 228.04 135.87, 95.75 21.46 M363.78 249.91 C271.78 171.67, 180.13 93.12, 99.34 21.21 M364.32 250.03 C260.65 162.08, 157.09 72.72, 99.99 19.57 M366.26 245.73 C292.61 181.59, 220.4 120.3, 104.43 17.34 M365.1 245.83 C300.76 187.29, 235.29 129.56, 104.26 18.36 M366.48 241.1 C281.98 169.25, 197.96 93.41, 109.52 17.38 M367 241.93 C306.94 189.22, 247.38 137.14, 108.64 17.36 M368.67 236.72 C294.91 172.96, 219.41 107.75, 112.61 14.86 M368.19 237.97 C271.75 153.51, 177.17 70.72, 113.33 15.77 M368.78 233.95 C289.34 163.1, 209.21 92.2, 117.03 14.27 M370.01 233.13 C316.61 188.39, 264.1 142.21, 117.1 13.51 M372.04 228.11 C320.64 182.98, 268.89 139.22, 120.55 11.29 M371.34 228.48 C289.97 159.61, 211.19 90.47, 121.18 12.8 M372.62 225.6 C322.11 181.86, 272.12 139.05, 124.92 10.34 M371.37 223.85 C286.67 150.26, 201.82 75, 126.33 11.03 M371.85 220.84 C294.52 148.56, 214.63 80.6, 129.84 9.86 M372.53 220.17 C288.82 147.63, 203.32 73.97, 130.99 9.09 M374.22 216.21 C282.78 135.52, 190.69 54.33, 134.58 6.46 M375.09 216.27 C317.43 164.94, 258.58 113.94, 135.13 8.46 M375.11 212.8 C318.55 160.16, 257.29 107.18, 140.32 4.73 M375.49 212.75 C293.35 142.14, 213.08 71.36, 138.72 5.67 M376.31 208.12 C304.66 143.63, 231.83 79.07, 143.46 4.96 M376.59 207.16 C285.45 127.09, 193.06 47.21, 142.91 4.62 M375.95 202.56 C294.47 129.26, 213.21 60.24, 149.01 4.45 M377.03 202.83 C299.38 136.17, 223.28 69.89, 148.11 2.7 M376.12 198.37 C290.8 123.74, 205.27 47.95, 153.29 2.75 M377.67 197.89 C310.21 140.65, 245.31 83.8, 153.18 2.65 M376.35 192.49 C312.25 134.43, 245.34 74.51, 159 1.73 M377.28 191.96 C294.31 118.33, 211.82 45.09, 159.26 2.49 M377.13 188.08 C293.17 113.02, 208.43 38.07, 165.59 1.6 M376.36 186.18 C313.59 130.77, 249.86 74.17, 163.83 1.11 M377.42 180.25 C301.49 117.47, 228.58 51.06, 168.9 -0.05 M377.24 181.96 C314.93 126.67, 254.22 73.72, 169.83 0.74 M378.36 177.21 C310.23 119.76, 242.61 61.27, 174.88 1.95 M377.32 176.14 C299.72 105.95, 221.4 38.28, 175.95 1.29 M378.54 170.42 C329.48 131.07, 284.15 91.89, 181.09 -1.87 M377.47 172.29 C314.05 115.46, 249.49 60.47, 181.17 -0.1 M377.66 165.82 C308.54 105.34, 236.49 43, 184.67 0.05 M378.37 166.96 C337.77 133.76, 297.5 98.2, 186.34 -0.68 M377.4 159.14 C324.6 116.58, 274.02 71.69, 191.4 -1.44 M377.41 160.47 C332.04 121.44, 286.86 81.2, 192.16 -0.28 M375.43 151.34 C333.63 116.69, 294.31 79.96, 198.58 0.17 M374.11 151.93 C305.83 91.94, 234.65 31.61, 197.41 -0.94 M371.43 144.7 C322.23 104.34, 276.52 64.13, 203.62 -3.5 M372.78 146.03 C323.46 103.91, 273.43 60, 201.59 -3.01 M369.48 138.21 C324.67 97.55, 277.64 57.17, 211.83 -2.65 M371.41 138.66 C324.79 99.53, 279.3 60.07, 210.37 -0.82 M367.29 132.89 C332.79 99.95, 294.84 64.99, 219.05 1.05 M368.77 131.49 C336.97 105.84, 307.1 77.9, 218.36 0.89 M366.3 123.92 C329.41 93.68, 293.6 64.59, 227.55 0.59 M366.44 124.98 C310.94 76.65, 255.78 29.14, 225.74 1.75 M362.93 116.81 C329.99 89.78, 298.44 60.65, 232.1 3.42 M365.02 116.97 C338.56 93.38, 311.21 70.39, 232.92 3.9 M362.57 111.02 C332.54 82.54, 303.08 58, 245.26 9.12 M360.88 108.74 C324.88 76.82, 286 43.78, 244.94 7.53 M355.53 98.83 C319.18 66.26, 283.18 35.49, 258.07 13.83 M352.89 98.11 C333.67 79.07, 312.13 59.07, 256.67 13.86 M347.06 84.81 C321.77 62.45, 291.63 39.47, 267.99 17.88 M346.87 86.84 C325.62 66.63, 303.33 49.33, 269.9 19.93 M337.29 75.58 C319.83 58.21, 298.92 40.04, 281.46 26.45 M338.79 73.66 C325.58 61.73, 311.19 50.52, 282.26 25.56"
              stroke="#fa5252" stroke-width="0.5" fill="none"></path>
        <path d="M242.98 8.71 C259.98 10.85, 276.11 21.35, 291.11 30.71 C306.1 40.08, 321.2 51.76, 332.93 64.91 C344.66 78.05, 354.24 93.59, 361.49 109.59 C368.74 125.59, 374.36 143.35, 376.43 160.89 C378.5 178.43, 376.75 197.57, 373.92 214.83 C371.09 232.1, 367.18 248.61, 359.46 264.48 C351.75 280.36, 339.77 297.13, 327.64 310.08 C315.51 323.03, 301.95 333.24, 286.68 342.18 C271.4 351.11, 253.34 359.23, 235.99 363.69 C218.65 368.15, 200.52 369.63, 182.61 368.95 C164.71 368.26, 145.46 364.85, 128.55 359.59 C111.64 354.33, 95.84 347.33, 81.16 337.4 C66.49 327.46, 51.75 313.65, 40.51 300 C29.28 286.36, 20.41 271.51, 13.75 255.53 C7.09 239.55, 2.23 221.64, 0.56 204.1 C-1.12 186.57, 0.35 167.56, 3.69 150.33 C7.03 133.1, 12.52 116.43, 20.61 100.73 C28.7 85.04, 39.87 69.08, 52.21 56.17 C64.54 43.25, 78.96 31.8, 94.65 23.25 C110.33 14.7, 128.78 8.79, 146.31 4.88 C163.83 0.96, 181.09 -1.62, 199.78 -0.26 C218.47 1.11, 246.35 9.18, 258.45 13.07 C270.54 16.96, 273.4 20.23, 272.34 23.09 M195.23 0.25 C212.08 -2.28, 232.23 3.43, 249.21 9.11 C266.19 14.8, 282.7 23.85, 297.14 34.35 C311.58 44.84, 324.9 58.48, 335.85 72.11 C346.81 85.73, 356.12 100.13, 362.85 116.08 C369.58 132.04, 374.53 150.24, 376.22 167.83 C377.92 185.43, 376.56 204.29, 373.03 221.67 C369.5 239.04, 363.22 256.75, 355.02 272.09 C346.82 287.43, 336.25 301.44, 323.83 313.7 C311.41 325.97, 296.23 337.04, 280.48 345.69 C264.74 354.34, 247.02 361.43, 229.38 365.61 C211.73 369.79, 192.7 372.05, 174.64 370.75 C156.57 369.45, 137.42 364.11, 120.97 357.82 C104.53 351.53, 90.15 343.72, 75.96 333.01 C61.77 322.31, 46.51 307.97, 35.84 293.58 C25.17 279.19, 17.65 262.82, 11.91 246.67 C6.18 230.52, 2.56 213.96, 1.41 196.69 C0.26 179.42, 1.09 160.1, 5.01 143.04 C8.93 125.98, 15.99 109.66, 24.93 94.35 C33.87 79.04, 45.6 63.53, 58.63 51.19 C71.67 38.86, 87.59 28.28, 103.14 20.33 C118.68 12.39, 136.17 7.06, 151.91 3.51 C167.64 -0.03, 190.31 -0.81, 197.53 -0.94 C204.74 -1.07, 195.45 -0.45, 195.21 2.73"
              stroke="#000000" stroke-width="1" fill="none"></path>
    </g>
    <g stroke-opacity="0.6" fill-opacity="0.6" stroke-linecap="round"
       transform="translate(267.3982950846355 101.41974879781895) rotate(0 284.85552978515625 281.90692138671875)">
        <path d="M88.13 79.26 C88.13 79.26, 88.13 79.26, 88.13 79.26 M88.13 79.26 C88.13 79.26, 88.13 79.26, 88.13 79.26 M50.31 130.54 C69.82 106.45, 94.38 81.33, 102.83 66.64 M47.76 131.29 C66.66 110.66, 85.05 89.94, 104.78 67.71 M41.81 147.48 C64.28 120.62, 85.33 94.42, 119.52 53.84 M41.04 146.51 C69.03 115.42, 95.88 84.46, 120.72 53.13 M35.08 162.07 C67.48 117.7, 105.61 80.67, 135.31 42.98 M32.82 159.36 C68.82 119.16, 106.83 75.33, 137.08 41.59 M24.21 176.8 C62.32 132.82, 95.61 94.77, 143.74 41.82 M26.87 174.09 C67.72 124.02, 111.93 74.68, 143.42 40.14 M20.3 189.02 C52.56 148.96, 89.54 107.39, 150.66 35.57 M18.73 189.87 C62.44 140.49, 106.55 89.16, 152.49 37.16 M16.54 198.67 C45.9 161.7, 78 126.89, 160.91 33.89 M17.07 198.25 C52.59 157.32, 89.19 115.37, 160.35 32.77 M15.83 206.75 C52.32 165.96, 88.03 123.67, 169.89 28.52 M14.14 206.63 C60 153.99, 105.28 102.6, 168.87 28.81 M13.96 213.11 C51.66 168.1, 93.98 122.66, 178.46 24.09 M13.99 214.4 C60.65 158.09, 109.95 101.09, 177.17 25.48 M10.69 223.66 C74.93 150.64, 138.67 78.07, 186.54 22.81 M10.75 223.13 C80.61 144.34, 147.81 65.31, 185.42 21.84 M10.2 230.5 C51.63 179.81, 94.2 131.82, 195.12 18.31 M9 230.48 C79.22 149.43, 148.36 69.23, 193.66 17.34 M8.53 239.09 C59.56 177.62, 113.97 118.01, 204.14 13.71 M7.56 238.24 C73.46 161.56, 140.46 84.76, 203.81 13.11 M4.21 248.67 C70.4 173.08, 135.1 102.26, 209.3 13.85 M6.3 247.89 C48.66 198.2, 91.28 149.96, 209.06 12.68 M3.88 255.83 C58.74 191.61, 113.1 132.31, 217.19 12.45 M5.32 255.16 C82.37 167.23, 159.1 77.07, 216.13 11.32 M5.28 261.23 C87.02 165.59, 168.65 73.21, 222.52 11.55 M4.7 260.71 C57.44 203.57, 107.69 144.61, 222.24 11.14 M4 266.85 C75.75 185.64, 145.65 102.16, 226.77 11.05 M5.04 266.02 C63.78 196.75, 125.03 125.69, 227.86 10.28 M5.74 271.46 C57.71 212.86, 109.85 154.58, 234.38 8.1 M4.69 272.43 C82.57 180.83, 162.2 89.93, 234.59 9.22 M5.58 276.77 C80.49 193.52, 154.2 107.47, 241.23 8.82 M5.96 278.05 C89.6 182.44, 171.86 86.8, 239.91 7.37 M5.03 283.91 C62.17 217.61, 117.84 152.33, 248 5.67 M5.31 284.46 C93.24 179.54, 183.57 77.25, 246.4 6.59 M6.58 288.91 C62.01 225.49, 117.33 162.05, 254.05 4.61 M5.15 289.47 C78.46 207.33, 151.63 123.1, 252.74 5.72 M6.05 296.75 C74.29 214.89, 143.76 136.46, 259.76 5.46 M5.3 295.75 C100.18 186.64, 195.8 76.92, 258.88 5.42 M5.79 300.89 C76.34 218.47, 147.55 136.36, 265.97 3.24 M5.38 301.39 C73.92 221.05, 143.61 141.08, 265.05 3.61 M5.98 307.24 C108.79 188.33, 209.75 69.44, 270.04 2.92 M5.56 307.96 C102.34 194.7, 200.13 83.69, 270.21 3.22 M5.96 314 C63.61 247.62, 121.05 179.42, 275.75 4.23 M5.51 313.63 C71.47 240.52, 135.78 166.36, 275.88 3.85 M4.44 320.14 C94.41 218.86, 182.83 116.47, 280.38 4.38 M5.26 320.71 C112.86 198.61, 219.4 76.16, 281.23 3.26 M6.11 326.5 C72.73 246.97, 139.03 170.08, 285.63 3.85 M6.64 325.99 C80.3 241.94, 153.64 158.62, 285.92 3.69 M6.33 331.77 C118.29 203.53, 229.9 77.49, 291.65 3.18 M7.23 330.49 C68.38 260.42, 130.39 187.68, 291.78 3.6 M7.9 334.33 C87.66 243.47, 167.08 150.44, 296.16 4.89 M8.73 334.72 C114.4 212.77, 219.81 91.47, 296.23 4.53 M9.47 340.42 C69.13 270.96, 130.51 201.2, 301.62 4.79 M10.27 339.54 C92.99 243.07, 178 146.11, 301.73 4.42 M10.08 345.53 C96.37 245.68, 182.06 146.14, 306.47 5.28 M11 344.86 C99.79 244.61, 186.72 144.6, 306.64 5.4 M11.8 348.82 C120.48 221.65, 230.73 96.09, 311.55 5.35 M12.47 349.49 C118.39 226.63, 225.51 103.53, 310.84 5.99 M13.03 354 C131.7 220.22, 248.2 84.34, 315.64 5.62 M12.94 354.36 C120.25 228.4, 229.48 103.46, 316.62 5.83 M14.35 358.21 C120.67 236.89, 226.89 112.97, 322.12 5.71 M14.81 358.66 C83.99 279.92, 152.43 199.84, 322.24 5.9 M16.18 362.82 C106.39 258.48, 197.27 153.56, 326.56 6.44 M15.9 363.97 C132.2 232.84, 246.63 101.12, 326.99 5.73 M16.77 367.92 C86.3 290.05, 155.08 209.11, 331.99 5.56 M17.15 368.61 C91.16 283.52, 163.83 199.94, 331.82 6.4 M17.12 373.62 C110.62 267.22, 202.43 161.79, 336.74 6.8 M17.83 373.47 C121.7 256.35, 224.42 137.82, 336.74 6.92 M19.18 378.6 C127.23 254.67, 234.67 130.17, 341.85 7.83 M18.8 378.35 C134.24 247.38, 248.36 115.37, 341.35 8.06 M19.55 383.6 C109.64 278.84, 199.07 176.01, 345.66 9.34 M20.35 383.03 C118.55 270.76, 217.2 158.34, 345.19 8.92 M21.98 385.79 C98.43 301.69, 172.03 214.8, 350.6 10.51 M22.04 386.33 C125.7 266.96, 229.51 147.52, 349.49 10.15 M24.81 390.59 C123.8 276.09, 223.29 161.41, 353.45 10.92 M24.21 390.74 C152.2 243.86, 279.06 96.96, 353.77 11.33 M26.47 394.54 C132.93 270.19, 242.75 143.87, 358.64 12.15 M25.8 394.57 C117.02 289.98, 207.52 186.78, 358.75 11.97 M28 397.98 C109.86 303.76, 193.7 208.69, 363.29 13.85 M27.85 398.38 C140.3 267.43, 253.59 136.6, 363.15 12.89 M30.59 401.82 C110.5 306.52, 192.43 212.75, 367.16 13.88 M29.94 402.15 C136.84 281.04, 242.92 159.29, 367.34 14.73 M32.48 405.54 C144.35 277.28, 254.73 150.07, 372.21 15.51 M31.99 405.83 C138.05 282.42, 243.49 160.6, 371.76 15.35 M34.48 409.24 C126.43 305.6, 218.83 200.92, 376.48 16.35 M33.93 409.45 C166.28 260.91, 296.81 110.4, 375.79 16.38 M35.91 412.54 C169.79 258.35, 304.76 103.83, 380.01 17.17 M36.5 412.93 C156.3 275.64, 276.83 137.79, 380.16 17.39 M38.48 416.7 C137.75 303.85, 238.11 188.67, 385.2 18.85 M37.68 417.03 C160.17 278.46, 281.69 139.24, 384.19 18.45 M40.67 420.17 C121.46 327.01, 203.13 235.83, 388.34 19.98 M40.78 420.69 C137.1 308.68, 234.74 195.99, 389.05 19.87 M41.6 425.61 C138.85 314.94, 234.43 206.72, 392.03 22.55 M42.01 425.21 C156 291.03, 271.93 157.99, 392.72 21.56 M45.04 427.46 C137.1 318.97, 231.42 211.45, 395.51 24.1 M44.18 428.43 C123.84 335.46, 203.33 244.14, 395.98 23.69 M45.61 431.68 C177.79 282.67, 309.12 131.36, 399.4 24.93 M45.9 432.07 C179.25 278.69, 311.4 126.16, 400.13 25.95 M48.17 436.12 C139.9 329.99, 232.31 224.49, 402.72 28.16 M48.16 436.64 C154.98 316.27, 260.52 193.78, 403.65 27.31 M50.29 440.84 C130.59 345.84, 211.63 252.16, 407.95 28.62 M49.41 441 C185.32 285.22, 320.19 130.76, 407.42 29.45 M52.55 442.7 C127.53 359.6, 201.13 274.33, 411 31.37 M52.72 443.5 C158.37 323.79, 263.38 203.75, 410.8 30.85 M55.05 446.33 C150.12 334.62, 246.82 223.37, 414.33 32.49 M54.83 446.98 C185.81 297.01, 317.16 145.3, 414.43 33.4 M57.93 448.67 C141.91 352, 226.84 252.89, 418.48 34.44 M57.98 448.99 C200.15 284.06, 342.96 119.33, 417.91 34.97 M59.79 453 C131.89 367.15, 204.26 283.15, 422.35 36.48 M60.01 452.4 C138.1 365.45, 214.3 277.4, 421.78 36.71 M62.56 455.75 C179.08 322.51, 293.95 188.98, 426 38.78 M62.58 456.2 C168.12 335.11, 272.97 213.94, 425.21 38.9 M65.91 459.27 C184.31 321.57, 304 183.73, 429.31 40.84 M66.08 458.39 C181.75 323.12, 298.55 189.12, 428.81 40.24 M68.79 461.32 C198.99 313.37, 329.29 163.53, 433.12 42.45 M68.08 462.35 C153.82 363.57, 239.83 264.91, 433.07 42.43 M71.92 465.09 C155.66 368.32, 240.54 272.28, 436.41 43.69 M71.15 464.99 C197.9 318.55, 324.55 172.81, 436.41 43.98 M72.92 467.7 C180.28 346.02, 286.15 223.85, 440.52 45.84 M73.26 467.68 C217.78 303.27, 361.36 138.37, 440 46.3 M75.84 471.07 C178.77 350.52, 281.26 232.69, 443.18 48.25 M76.26 470.82 C177.18 355.88, 276.88 240.97, 444.21 48.32 M78.24 473.57 C222.97 308.51, 366.74 144.06, 447.57 49.2 M78.68 473.63 C188.48 349.04, 298.47 223.3, 447.86 50.21 M82.4 476.12 C203.06 334.74, 325.67 194.44, 450.81 53.17 M81.79 476.66 C199.54 339.07, 318.37 202.88, 450.35 52.74 M83.94 480.27 C222.39 320.74, 359.27 162.77, 453.45 54.99 M84.02 480.01 C228.62 315.69, 371.93 150.84, 453.74 54.72 M87.18 483.8 C172.02 386.78, 254.83 290.03, 456.24 58.24 M86.4 483.39 C184.05 372.74, 281.53 260.13, 456.34 57.91 M89.1 486.25 C193.67 366.13, 297 246.08, 460.29 60.93 M89.36 486.17 C194.99 363.98, 300.9 241.75, 459.89 60.33 M91.27 488.87 C200.8 365.14, 309.89 238.89, 462.61 63.59 M91.68 489.38 C202.73 361.21, 314.17 233.02, 462.71 62.92 M95.16 492.63 C169.78 406.01, 245.32 318.6, 465.21 65.35 M94.67 492.22 C206.3 362.6, 318.18 233.97, 465.41 66.01 M99.38 493.96 C189.39 390.47, 281.49 285.72, 469.07 68.79 M98.3 493.93 C235.86 335.48, 374.61 175.92, 468.87 67.96 M101.54 496.11 C235.42 344.69, 366.41 193.72, 472.03 71.24 M101.61 496.34 C226.91 353.5, 350.99 210.46, 471.92 70.48 M104.32 499.79 C207.09 378.91, 311.09 258.78, 474.87 73.62 M104.44 499.08 C203.51 386.03, 303.01 270.39, 474.31 73.95 M108.98 500.72 C253.99 334.06, 398.42 168.06, 477.05 76.67 M108.33 501.24 C246.35 340.04, 385.33 180.15, 476.95 76.57 M111.31 503.99 C254.66 338.04, 397.89 174.8, 479.51 79.14 M111.33 503.3 C224.1 373.68, 337.02 243.94, 480.04 79.86 M113.96 506.78 C226.81 377.55, 339.3 249.09, 483.63 82.1 M114.82 506.06 C190.43 419.95, 265.75 333.27, 483.33 82.21 M117.5 507.94 C201.72 410.28, 289.18 310.59, 486.06 84.91 M118.35 507.83 C209.76 403.67, 300.13 299.64, 485.86 84.54 M120.46 510.28 C237.63 376.56, 355.92 241.32, 489.49 87.76 M121.34 510.84 C226.47 390.46, 331.2 270.25, 489.26 87.74 M125 512.99 C229.43 394.23, 331.4 276.05, 491.75 90.06 M124.49 512.55 C265.45 348.72, 406.75 185.64, 492.54 90.38 M127.21 514.53 C203.21 431.27, 276.09 345.67, 494.92 93.01 M128.15 515.03 C229.16 399.44, 329.25 284.16, 495.35 92.51 M130.8 517.87 C228.66 404.71, 327.02 292.1, 497.7 94.79 M130.62 517.84 C226.56 407.75, 323.82 296.26, 498.42 94.98 M134.29 519.98 C262.68 372.91, 389.4 227.62, 500.64 98.65 M134.52 519.67 C249.94 385.8, 364.99 252.87, 500.51 98.38 M138.14 522.99 C255.74 386.68, 373.4 251.14, 503.66 102.69 M137.73 522.76 C270.38 370.65, 402.04 219.17, 503.25 101.76 M141.04 524.93 C246.19 401.75, 351.17 278.63, 505.17 104.61 M140.16 525.32 C268.99 378.27, 396.07 231.92, 505.21 105.41 M143.83 526.07 C240.09 414.91, 338.07 303.43, 507.9 109.04 M144.19 526.8 C286.39 363.13, 428 199.98, 507.77 108.71 M147.9 529.69 C222.47 445.82, 296.16 359.57, 510.38 112.37 M147.55 529.45 C288.54 365.4, 431.4 200.94, 510.37 112.26 M151.9 530.44 C258.2 406.15, 365.83 283.49, 512.1 115.69 M151.82 530.5 C225.58 444.34, 300.82 358.2, 512.54 115.68 M154.54 532.42 C299.27 368.14, 440.77 205.29, 514.61 119.22 M155.62 532.21 C251.44 424.36, 346.21 315.6, 514.75 118.91 M159.63 533.66 C267.15 407.78, 377.19 283.36, 517.71 121.65 M159.52 533.31 C272.25 405.27, 383.35 277.58, 517.91 121.7 M162.59 536.24 C235.4 453.93, 306.74 369.15, 519.56 125.61 M162.9 535.19 C257.58 428.94, 351.34 321.25, 519.94 124.72 M167.3 537.07 C293.88 391.46, 421.18 247.35, 522.51 128.46 M167.03 537.14 C285.72 401.31, 402.89 266.09, 522.62 128.44 M171.7 538.23 C280.71 413.84, 390.7 288.36, 525.26 130.93 M171.14 538.81 C270.51 426.7, 368.38 314.13, 524.91 131.89 M174.92 540.51 C251.38 454.62, 325.54 368.11, 526.98 134.9 M175.26 540.64 C296.11 402.06, 416.35 264.08, 527.32 135.27 M179.03 541.38 C257.36 450.55, 337.35 359.74, 530.05 137.8 M178.88 541.08 C282.33 426.27, 383.93 309.25, 529.51 138.12 M183.27 543.55 C259.83 453.45, 337.67 366.12, 532.43 142.38 M182.9 543.28 C307.63 400.98, 430.82 259.7, 532.35 141.86 M187.41 544.9 C257.24 464.12, 328.82 383.29, 535.11 144.68 M186.71 545.09 C278.53 436.53, 372.21 329.02, 534.71 144.78 M190.88 546.49 C265.57 463.27, 338.7 378.44, 536.11 148.6 M191.02 545.93 C266.49 460.56, 342.01 373.53, 536.38 148.61 M194.34 548.44 C308.78 418.69, 421.53 289.52, 538.88 153.06 M194.75 548.42 C287.67 440.78, 381.1 332.72, 538.15 152.6 M198.98 548.74 C333.78 393.95, 470 237.5, 540.25 156.26 M198.85 549.62 C309.22 421.45, 420.7 293.24, 540.32 157.04 M203.25 550.98 C280.34 464.46, 355.99 376.34, 542.36 160.39 M202.29 551.29 C321.16 416.51, 439.2 281.29, 541.48 161.29 M206.89 553.53 C303.03 442.28, 399.28 332, 544.04 164.54 M206.7 552.7 C310.84 434.3, 414.23 315.33, 543.66 164.77 M210.97 553.46 C327.22 420.66, 444.26 287.77, 545.14 168.82 M210.83 553.92 C288.2 465.67, 364.93 377.51, 545.14 169.14 M214.44 555.36 C334.88 415.27, 457.02 275.4, 546.85 172.79 M214.86 555.44 C322.8 428.87, 431.07 303.86, 547.3 173.68 M220.33 555.58 C317.18 443.54, 413.15 332.39, 548.03 177.97 M220.31 555.35 C300.36 464.01, 381.28 371.5, 548.26 177.4 M223.95 556.46 C290.66 479.78, 357.7 401.38, 550.36 181.47 M224.33 556.89 C352.5 407.97, 481.56 259.03, 550.51 181.64 M229.05 556.33 C323.83 448.41, 418.14 340.26, 551.38 186.55 M229.6 556.83 C295.38 481.22, 362.08 404.39, 552.12 185.83 M234.09 558.12 C351.41 420.89, 470.1 283.11, 552.94 189.71 M233.44 557.83 C316.14 462.56, 398.07 367.81, 553.66 190.05 M239.35 558.36 C336.42 448.53, 434.14 336.24, 555.92 194.72 M238.4 558.45 C340.36 442.95, 441.14 326.76, 555.76 193.97 M242.79 559.13 C338.42 449.49, 436.14 338.49, 556.34 198.47 M242.97 559.75 C335.16 452.89, 428.08 346.42, 556.45 198.59 M247.49 560.56 C355.73 438.49, 460.28 316.75, 557.77 202.38 M248.04 560.27 C331.81 461.51, 416.44 365.01, 558.01 203.07 M252.48 560.69 C328.78 474.8, 403.72 389.6, 559.16 206.82 M252.61 560.91 C326.59 475.98, 400.11 390.79, 560.12 207.62 M256.41 561.99 C360.84 445.26, 462.02 327.27, 562.91 209.84 M256.8 561.83 C364.15 438.02, 469.97 315.59, 562.25 210.27 M260.76 562.18 C353.14 458.64, 445.27 353.14, 563.36 216.28 M261.24 562.76 C334.76 477.42, 409.47 391.28, 563.16 216.06 M266.55 562.87 C341 474.52, 417.94 387.75, 563.8 221.59 M266.42 562.58 C360.54 452.83, 455.98 342.88, 563.98 221.48 M270.07 563.68 C385.81 431.17, 501.86 299.4, 564.87 225.32 M271.14 564.28 C336.97 485.92, 404.03 409.53, 564.82 226.22 M276.32 563.78 C338.48 492.39, 403.33 419.01, 565.25 232.45 M275.4 564.29 C375.14 449.4, 475.96 334.63, 565.34 232.02 M280.89 563.69 C362.19 470.5, 446.21 374.87, 565.92 235.53 M281.42 564.45 C371.36 460.09, 460.59 357.2, 566.18 236.71 M286.74 564.61 C390.42 445.02, 494.72 325.94, 567.08 242.85 M286.97 563.6 C363.81 476.97, 440.23 389.12, 566.44 242.2 M293.75 563.09 C398.6 444.43, 503.25 322.53, 567.58 246.29 M293.34 561.97 C403.32 438.68, 511.62 314.14, 567.47 246.61 M299.64 561.03 C405.02 441.27, 508.77 320.92, 567.35 253.15 M299.62 562.31 C390.25 458, 480.99 352.9, 567.64 253.17 M305.52 562.82 C389.91 463.55, 474.83 364.86, 569.06 257.07 M304.44 561.64 C408.92 444.99, 510.07 327.5, 569.26 257.95 M309.29 560.62 C410.81 446.1, 512.69 327.46, 570.57 261.7 M310.55 561.04 C381.89 478.4, 452.85 396.91, 569.65 262.32 M317.05 561.54 C412.33 452.01, 505.54 341.35, 571.68 267.64 M315.57 561.33 C403.1 459.46, 491.12 358.04, 570.38 267.8 M320.54 560.71 C377.62 494.67, 437.85 427.82, 569.57 275.12 M321.59 560.94 C417.63 447.88, 515.07 336.98, 570.12 274.91 M327.29 560.1 C388.41 489.39, 447.44 419.83, 571.17 281.65 M327.86 559.43 C418.31 455.91, 508.63 352.14, 569.81 280.98 M332.67 559.96 C382.32 503.1, 431.1 447.9, 569.54 287.2 M333.43 558.41 C403.27 479.54, 472.48 400.69, 570.3 287.28 M339.84 557.85 C405.3 481.06, 470.79 403.8, 569.22 293.79 M338.83 558 C408.4 476.88, 478.95 396.64, 569.95 293.73 M343.87 558.49 C418.07 473.96, 491.81 388.86, 567.72 300.02 M344.07 560.28 C428.83 464.66, 513.45 367.27, 569 300.45 M350.94 556.71 C413.55 484.73, 474.61 415.35, 568.74 308.46 M350.7 557.9 C397.27 502.19, 444.76 448.07, 567.84 307.63 M357.36 555.52 C412.91 490.41, 468.11 426.15, 566.79 313.04 M357.92 555.13 C426.96 475.31, 494.28 397.61, 568.46 313.01 M366.23 554.52 C412.78 498.06, 459.01 444.23, 566.65 320.47 M365.34 553.3 C428.89 478.75, 495.1 404.06, 568.34 319.95 M373.14 550.41 C415.73 502.06, 457.42 454.42, 567.74 325.76 M372.83 550.09 C413.54 506.47, 454.49 459.65, 567.28 327.63 M380.5 546.95 C419.52 503.8, 461.44 458.61, 566.69 334.93 M380.17 547.25 C431.47 487.68, 483.15 428.63, 566.8 333.65 M385.78 547.33 C426.75 502.6, 462.92 458.15, 566.78 339.46 M387.03 545.81 C456.45 465.93, 525.27 385.96, 565.51 340.57 M394.68 543.88 C441.13 488.64, 488.96 432.71, 561.99 351.02 M395.02 543.22 C442.61 490.4, 487.65 437.13, 561.32 351.78 M404.21 539.12 C438.88 500.75, 470.88 463.89, 559.2 360.58 M404.94 539.13 C436.18 501.84, 468.6 464.23, 557.79 361.83 M416.08 530.1 C444.05 498.49, 469.55 466.99, 555.01 373.37 M415.41 531.45 C462.48 475.71, 509.71 420.26, 553.76 372.86 M426.42 523.22 C459.58 488.18, 487.71 455.55, 548.97 381.72 M425.92 524.99 C466.11 477.83, 507.79 432.04, 549.82 383.84 M437.74 520.12 C470.72 482.2, 502.86 446.89, 547.48 391.24 M438.32 519.08 C465.32 485.25, 493.49 452.5, 546.09 393.4 M448.76 511.63 C470.01 484.57, 494.63 461.49, 543.18 401.65 M449.43 511.44 C483.06 472.25, 515.15 434.51, 544.27 402.14 M459.13 503.11 C488.69 471.72, 517.15 441.85, 529.68 425.07 M459.63 503.77 C476.06 486.54, 492.27 466.44, 531.28 423.81 M495.13 469.26 C505.24 460.25, 509.9 453.8, 517.33 446.72 M496.75 469.03 C499.69 465.31, 505.42 458.51, 516.1 445.11"
              stroke="#fa5252" stroke-width="0.5" fill="none"></path>
        <path d="M387.88 18.57 C409 21.58, 428.93 36.76, 447.15 49.41 C465.37 62.06, 482.52 78.26, 497.2 94.46 C511.89 110.67, 524.87 127.7, 535.25 146.66 C545.64 165.62, 553.88 187.23, 559.5 208.24 C565.13 229.25, 568.19 250.79, 569.02 272.71 C569.85 294.64, 569 318.35, 564.5 339.8 C560 361.26, 551.48 381.96, 542.02 401.45 C532.56 420.94, 521.49 439.67, 507.76 456.76 C494.02 473.85, 476.93 490.53, 459.62 503.98 C442.31 517.44, 423.7 528.54, 403.89 537.47 C384.08 546.4, 362.25 553.23, 340.76 557.57 C319.27 561.91, 296.88 564.24, 274.95 563.53 C253.01 562.82, 230.53 559.17, 209.15 553.33 C187.76 547.49, 166.03 539.07, 146.62 528.48 C127.21 517.88, 108.91 504.52, 92.68 489.77 C76.46 475.02, 61.63 458.02, 49.25 439.99 C36.87 421.95, 26.12 401.69, 18.4 381.57 C10.68 361.45, 5.67 340.9, 2.95 319.25 C0.23 297.6, -0.1 273.54, 2.09 251.65 C4.28 229.76, 8.77 208.31, 16.07 187.89 C23.36 167.48, 33.88 147.26, 45.88 129.17 C57.87 111.08, 72.29 94.45, 88.05 79.35 C103.81 64.24, 121.6 49.8, 140.43 38.55 C159.27 27.29, 179.79 18.11, 201.05 11.81 C222.31 5.51, 245.79 2.01, 267.99 0.74 C290.19 -0.53, 310.49 -0.33, 334.27 4.21 C358.04 8.74, 395.1 21.1, 410.64 27.93 C426.18 34.77, 429.73 40.75, 427.49 45.21 M280.03 1.22 C300.51 -4.17, 322.34 0.73, 343.56 5.14 C364.79 9.55, 387.41 18.09, 407.38 27.69 C427.36 37.29, 446.3 49.28, 463.42 62.76 C480.54 76.24, 496.56 91.14, 510.12 108.57 C523.69 126, 535.92 147.34, 544.8 167.32 C553.69 187.31, 559.08 207.12, 563.43 228.46 C567.78 249.8, 571.51 273.51, 570.91 295.38 C570.31 317.26, 566.21 339.1, 559.82 359.72 C553.44 380.35, 543.38 400.33, 532.6 419.12 C521.83 437.91, 510.1 456.21, 495.18 472.49 C480.26 488.76, 461.44 504.66, 443.07 516.78 C424.7 528.89, 405.52 537.67, 384.95 545.2 C364.37 552.73, 341.52 559.09, 319.64 561.95 C297.75 564.81, 275.73 564.77, 253.64 562.37 C231.55 559.97, 208 555.2, 187.1 547.55 C166.21 539.89, 146.71 528.64, 128.28 516.44 C109.85 504.24, 91.77 490.1, 76.53 474.36 C61.28 458.62, 47.61 440.92, 36.8 422.01 C25.99 403.11, 17.65 381.69, 11.66 360.91 C5.66 340.13, 1.89 318.69, 0.84 297.31 C-0.22 275.93, 1.46 254.29, 5.33 232.61 C9.19 210.94, 15.26 187.34, 24.02 167.25 C32.79 147.15, 44.62 129.06, 57.91 112.05 C71.19 95.04, 87 78.93, 103.76 65.16 C120.52 51.4, 138.79 39.07, 158.47 29.44 C178.14 19.81, 201.71 12.18, 221.8 7.37 C241.89 2.57, 269.33 1.03, 279.01 0.63 C288.69 0.23, 279.68 0.62, 279.87 4.99"
              stroke="#000000" stroke-width="1" fill="none"></path>
    </g>
    <g transform="translate(494.165018717448 359.02668239156907) rotate(0 64 22.5)">
        <text x="0" y="32" font-family="Virgil, Segoe UI Emoji" font-size="36px" fill="#000000" text-anchor="start"
              style="white-space: pre;" direction="ltr">Domain
        </text>
    </g>
    <g stroke-opacity="0.8" fill-opacity="0.8" stroke-linecap="round"
       transform="translate(179.066874186198 10.000010028287704) rotate(359.9153212089579 371.99353027343744 367.43069458007807)">
        <path d="M104.97 111.13 C104.97 111.13, 104.97 111.13, 104.97 111.13 M104.97 111.13 C104.97 111.13, 104.97 111.13, 104.97 111.13 M65.97 165.78 C83.54 141.97, 100.66 120.63, 124.27 98.05 M63.06 164.46 C85.54 140.7, 108.38 114.76, 123.57 97.2 M61.5 174.6 C79.14 151.44, 100.06 131.13, 139.7 82.11 M61.9 174.31 C81.05 149.36, 103.65 126.8, 141.13 82.55 M54.17 189.23 C84.07 154.39, 115.22 118.67, 161.34 64.81 M54.01 189.22 C74.84 164, 96.88 137.81, 159.16 66.25 M45.42 206.05 C74.79 169.1, 106.05 134.25, 163.58 64.82 M44.78 204.78 C88.92 152.77, 135.28 99.81, 164.82 65.64 M35.65 220.4 C86 164.1, 135.86 107.62, 176.21 58.46 M36.3 220.85 C73.32 177.7, 109.31 137.37, 176.13 59.86 M26.7 239.72 C81.83 173.62, 137.93 110.78, 188.3 52.7 M26.63 239.31 C66.16 193.01, 106.97 147.26, 187.18 52.98 M22.85 248.38 C91.2 170.23, 160.71 91.52, 198.96 45.54 M23.02 247.3 C60.4 205.46, 97.28 161.37, 198.36 45.04 M21.19 257.47 C70.43 198.99, 123.45 143.81, 210.07 39.33 M20.2 257.35 C88.42 181.3, 154.64 104.99, 209.84 39.32 M18.4 265.59 C73.61 200.15, 130.58 133.41, 218.69 36.55 M19.35 265.1 C75.89 197.63, 134.03 131.67, 217.63 37.04 M15.06 275 C79.94 199.32, 143.96 126.54, 224.63 32.68 M16 273.41 C94.41 185.78, 171.86 96.41, 224.67 34.35 M13.01 283.1 C64.63 226.91, 113.6 171.08, 233.18 32.37 M13.4 284 C91.71 194, 169.55 104.91, 232.26 31.44 M10.31 290.88 C101.03 186.52, 192.74 81.81, 240.45 27.84 M11.38 292.4 C74.04 221.18, 136.55 149.36, 240.44 28.37 M10.13 300.32 C94.26 202.92, 180.07 105.15, 248.03 26.36 M9.64 300.32 C103.46 192.4, 197.29 85.34, 247.68 25.38 M3.08 312.23 C53.66 256.27, 105.33 196.7, 256.47 22.28 M4.52 312.8 C58.21 252.08, 111.93 189.74, 256.03 23.64 M3.44 319.25 C88.8 224.41, 172.5 126.19, 263.01 21.11 M3.43 318.3 C68.08 245.26, 132.14 171.12, 262.38 21.45 M3.21 325.83 C59.39 261.7, 117.29 195.85, 270.61 18.05 M3.54 324.77 C69.27 252.86, 132.31 179.19, 269.67 18.27 M2.56 330.85 C103.23 219.07, 200.98 104.06, 280.08 13.82 M3.71 331.95 C86.52 234.51, 170.78 137.69, 280.14 12.59 M2.96 337.14 C80.55 249.93, 156.12 162.17, 286.9 12.97 M3.04 338.38 C112.55 212, 221.17 86.43, 286.42 12.2 M2.45 344 C110.49 220.95, 218.09 96.5, 292.16 10.96 M2.81 344.3 C111.9 219.63, 220.16 94.91, 293.25 10.68 M2.29 351.68 C74.17 271.27, 145.17 188.07, 299.25 10.24 M2.86 350.61 C112.86 225.84, 222.95 100.64, 298.34 10.52 M2.23 356.66 C83.87 263.68, 165.63 169.22, 304.81 8.76 M2.76 357.56 C64.77 283.2, 128.54 210.37, 304.5 9.64 M2.88 363.13 C103.34 245.1, 206.68 126.57, 311.82 7.65 M2.35 363.21 C99.43 251.86, 195.39 141.31, 310.71 7.78 M1.59 370.59 C76.77 284.54, 153.04 197.59, 316.71 7.11 M1.77 369.65 C68.08 292.87, 134.15 216.09, 316.63 8.01 M1.71 376.28 C126.74 232.76, 250.57 89.53, 323.62 6.96 M1.82 376.61 C69.56 297.53, 136.53 220.93, 322.81 6.94 M1.41 382.96 C82.81 288.99, 165.14 195.31, 330.15 5.99 M1.5 382.43 C102.39 266.82, 203.57 150.79, 328.98 5.73 M3.07 386.45 C132.04 237.99, 261.33 90.72, 334.96 3.57 M3.02 386.85 C88.96 289.92, 173.7 192.75, 335.75 4.2 M3.76 393.1 C124.7 253.39, 247.28 113.51, 341.24 3.97 M3.7 392.51 C97.14 284.45, 190.44 177.3, 341.43 4.03 M4.5 398.14 C121.45 261.96, 237.94 127.85, 347.79 3.26 M4.5 397.06 C115.15 269.42, 227.39 139.58, 347.84 2.4 M4.43 402.76 C78.99 316.69, 155 230.38, 354.06 1.05 M4.82 402.8 C83.65 311.3, 163.19 220.15, 354.29 0.69 M5.47 407.41 C75.68 325.58, 147.03 242.27, 359.93 1.32 M6.32 407.57 C110.89 285.85, 215.15 165.47, 359.51 0.97 M7.24 413.13 C133.58 269.3, 258.37 125.62, 365.27 1 M6.86 413.07 C118.28 287.42, 228.1 160.67, 364.46 1.82 M7.76 417.8 C137.64 269.29, 266.25 120.95, 369.3 1.56 M7.66 418.69 C124.26 284.85, 239.82 152.3, 369.89 1.71 M8.13 422.72 C110.69 308.03, 211.87 191.02, 374.49 2.05 M8.14 423.05 C87.52 334.87, 165.61 245.6, 374.64 2.43 M8.28 428.37 C128.25 290.82, 249.72 152.55, 379.68 3.15 M8.9 428.66 C136.6 282.69, 263.31 136.67, 379.79 2.48 M10.12 434.07 C159.68 261.82, 309.04 89.78, 385.19 2.47 M9.87 433.98 C111.93 317.75, 213.11 201.04, 384.2 2.85 M11.7 438.49 C110.99 320.59, 212.96 204.27, 389.19 3.41 M10.96 438.95 C89.07 349.74, 166.06 261.3, 389.41 3.55 M11.87 444.73 C129.08 309.63, 247.33 175.16, 394.35 4.03 M11.59 444.8 C145.54 291.12, 278.05 138.69, 394.44 3.79 M12.63 450.07 C122.46 325.86, 230.02 202.39, 399.45 4.34 M12.38 449.63 C140.58 303.85, 267.2 157.88, 399.07 4.13 M12.37 455.37 C118.53 331.19, 224.76 208.73, 404.45 4.78 M12.94 455 C151.37 296.83, 287.83 139.64, 404.22 4.28 M11.85 462.18 C125.31 330.9, 238.71 200.19, 410.03 5.45 M12.27 461.59 C104.05 358.01, 194.6 253.74, 409.65 4.41 M14.92 465.73 C157.76 302.37, 300.73 137.9, 414.7 4.66 M14.12 465.84 C144.85 316.42, 275.8 165.71, 414.34 5.34 M15.31 469.72 C160.64 301.82, 306.12 135.87, 419.82 5.36 M16.16 470.03 C100.46 373.62, 184.14 277.84, 420.42 4.36 M17.08 473.19 C141.27 329.52, 267.45 185.18, 425.66 5.53 M17.44 473.67 C164.73 303.69, 311.85 134.3, 425.39 4.78 M18.58 477.74 C180.3 292.79, 340.68 106.77, 429.43 6.41 M19.23 477.55 C124.95 357.96, 230.83 236.77, 429.39 6.34 M21.61 481.93 C129.22 359.31, 235.29 236.36, 432.94 6.95 M21.03 481.9 C134.32 350.3, 249.31 218.51, 433.44 7.73 M22.06 486.2 C120.83 375.57, 215.76 266.28, 438.25 7.05 M22.68 486.55 C172.21 314.43, 322.53 140.72, 438.77 7.89 M23.94 490.55 C119.43 384.38, 213.26 276.73, 442.89 8.28 M24.33 490.68 C167.02 325.28, 310.14 160.62, 442.94 8.45 M26.82 494.57 C171.11 326.4, 315.74 159.58, 448.03 10.27 M26.09 494.58 C191.96 305.34, 356.97 116.78, 446.96 9.76 M28.61 498.36 C117.76 397.3, 206.51 296.39, 451.46 10.53 M28.1 498.66 C176.92 326.41, 327.16 153.43, 451.55 10.88 M28.41 503.33 C176.73 333.38, 323.54 163.62, 455.73 12.65 M28.68 503.51 C116.35 404.49, 202.83 304.8, 456.2 11.77 M30.23 506.88 C162.1 355.83, 294.26 204.57, 460.47 13.52 M31 507.46 C184.1 331.11, 337.76 154.29, 460.44 13.46 M33.05 511.8 C150.94 372.94, 271.56 234.97, 465.16 13.83 M32.4 512.08 C180.89 338.45, 330.44 166.12, 464.64 14.62 M34.48 516.09 C201.43 320.45, 371.41 125.58, 469.39 14.92 M34.22 515.74 C180.14 348.54, 323.7 183.39, 468.88 15.73 M35.31 520.25 C178.37 359.81, 319.58 196.9, 474.06 16.49 M36 520.07 C193.02 339.71, 349.72 159.38, 472.96 16.4 M37.39 524.9 C132.66 411.51, 231.34 299.39, 479.07 17.52 M37.11 524.2 C165.58 374.71, 296 225.61, 478.32 17.23 M39.15 527.68 C170.82 376.78, 303.13 223.84, 481.92 18.5 M38.8 528.06 C156.25 392.42, 275.3 255.98, 483.04 17.76 M42.2 531.39 C199.43 352.69, 354.97 173.45, 486.7 18.66 M41.67 531.4 C132.07 426.67, 224.48 320.17, 487 19.33 M43.3 535.08 C205.11 350.82, 364.78 165.63, 491.41 19.83 M44.18 534.66 C173.29 387.89, 302.39 239.6, 490.93 20.62 M47.02 539.1 C141.41 428.06, 235.16 321.36, 495.34 20.94 M46.2 538.81 C168.64 401.52, 288.18 263.07, 495.87 21.09 M47.18 541.88 C179.26 391.76, 311.08 239.53, 500.23 22.11 M48.19 542.24 C194.57 373.7, 342.23 204.57, 500.02 22.35 M49.77 545.77 C148.49 432.43, 247.62 317.84, 504.13 23.15 M50.62 545.53 C147 433.73, 242.44 324.23, 503.96 23.48 M53.37 548.84 C154.54 430.86, 256.41 314.09, 508.31 25.14 M52.91 548.91 C176.11 404.1, 300.67 260.92, 507.69 25.6 M54.48 552.38 C185.53 403.66, 314.83 254.57, 511.58 26.71 M55.23 553.04 C155.19 441.88, 252.48 329.1, 511.35 27.33 M56.14 556.02 C200.68 390.41, 345.87 223.77, 515.76 28.68 M56.92 556.61 C201.84 390.71, 346.98 223.82, 514.95 29.24 M58.89 560.44 C193.85 404.91, 330.15 247.01, 518.76 31.9 M59.05 560.37 C239.02 353.45, 419.44 145.57, 518.65 30.82 M61.92 563.95 C184.22 422.29, 304.88 282.68, 522.04 33.21 M61.79 563.76 C164.17 447.06, 266.41 328.74, 522.8 32.71 M63.66 566.74 C172.35 442.47, 281.69 317.51, 526.14 35.19 M63.85 567.3 C200.96 407.01, 338.86 248.23, 526.75 35.19 M65.59 570.87 C160.04 463.62, 254.18 354.85, 530.25 37.43 M65.6 571 C185.32 432.31, 304.71 295.43, 529.73 36.38 M67.96 574.95 C187.15 435.19, 309.61 294.94, 533.43 38.92 M67.73 574.38 C175.12 452.78, 280.05 331.75, 533 39.57 M71 577.08 C162.56 469.19, 256.46 360.7, 536.79 40.72 M70.19 577.88 C192.39 436.26, 317.34 292.45, 536.92 41.13 M71.62 581.56 C177.2 462.38, 282.86 339.4, 539.84 42.61 M71.72 582.05 C215.1 417, 359.87 250.4, 540.66 43.22 M73.68 585.4 C246.52 388.55, 416.18 192.8, 544.3 45.67 M74.73 585.35 C259.52 372.02, 444.67 159.82, 544.05 44.93 M77.19 588.58 C247.57 390.71, 418.96 193.68, 547.31 46.77 M76.56 588.51 C176.8 472.74, 277.57 356.1, 547.38 47.19 M79.68 592.7 C236.02 413.22, 390.86 234.94, 552.19 49.01 M78.96 592.46 C250.64 393.42, 422.4 196.28, 551.39 48.56 M80.78 596.95 C270.97 380.89, 459.16 163.37, 554.35 50.61 M80.39 596.38 C201.28 456.32, 323.99 315.7, 555.39 50.96 M84.22 599.22 C262.18 392.04, 440.28 186.4, 558.43 52.21 M83.78 598.92 C272.28 384.2, 460.01 168.71, 558.8 52.23 M86.71 602.17 C197.32 473.24, 309.06 345.15, 562.6 53.67 M86.63 601.51 C223.48 445.41, 359.55 289.57, 562.48 54.33 M88.53 605.57 C243.05 430.66, 394.88 254.17, 566.1 56.63 M89.37 604.86 C229.82 443.03, 370.06 280.74, 566.29 55.87 M92.81 607.26 C220.33 459.29, 348.01 312.2, 569.58 58.13 M91.97 607.14 C275.91 394.53, 459.81 182.61, 569.58 57.88 M95.5 609.39 C193.14 498.21, 291.31 383.67, 572.99 59.51 M95.18 610.33 C264.39 414.06, 435.55 218.11, 573.61 59.58 M98.07 613.77 C230.8 460.91, 362.37 310.11, 576.89 62.44 M97.76 613.69 C284.46 399.29, 469.98 185.8, 576.52 62.5 M100.2 616.54 C207.89 496.13, 314.02 374.37, 579.1 65.91 M100.49 616.46 C230.29 468.09, 359.17 320.13, 579.34 65.55 M103.4 618.33 C257.69 442.48, 411.01 265.82, 583.36 67.83 M103.86 618.95 C274.72 424.49, 444.63 229.25, 583.55 66.72 M105.88 621.34 C292.52 410.96, 475.52 199.45, 585.62 69.77 M106.35 621.29 C297.21 400.2, 488.81 179.81, 585.89 69.92 M108.86 625.31 C232.62 484.02, 355.82 341.65, 589.59 72.51 M108.74 624.7 C253.37 462.28, 394.98 299.2, 589.19 72.55 M111.45 627.8 C234.08 489.77, 353.15 351.16, 592.37 75.11 M112.35 627.05 C263.73 451.64, 415.22 277.61, 592.53 74.77 M114.25 629.57 C223.11 504.25, 331.15 381.54, 595.71 76.72 M115.2 630.3 C238.05 490.12, 359.57 349.66, 596.25 76.47 M116.89 633.98 C219.78 512.71, 323.39 393.99, 599.7 78.83 M117.56 633.66 C246.33 488.04, 374.41 339.69, 599.3 79.32 M121.05 636.06 C282.96 449.7, 446.03 261.78, 602.28 82.43 M120.79 635.85 C220.64 517.35, 322.92 399.92, 602.06 82.35 M123.72 638.22 C220.15 522.9, 319.4 409.12, 605.67 83.91 M123.82 639.01 C266.02 476.23, 407.95 313.32, 605.35 84.76 M125.03 642.55 C231.35 522.85, 336.64 402.85, 608.44 86.43 M125.96 642.17 C316.38 423.38, 507.02 203.11, 608.94 86.19 M128.98 645.39 C312.41 428.8, 500.15 214.75, 612.04 89.41 M128.53 644.78 C288.51 461.28, 446.93 278.97, 611.41 89.44 M131.05 647.53 C253.42 510.48, 371.41 373.6, 615.4 92.07 M131.71 647 C308.49 443.42, 484.06 241.18, 614.5 92.17 M135.47 649.66 C259.34 506.37, 384.78 363.97, 618.29 94.11 M134.45 650.01 C273.19 490.81, 411.74 331.53, 617.33 94.44 M138.19 652.44 C291.14 477.49, 441.36 303.55, 621.32 95.92 M137.85 652.58 C293.36 476.63, 448.19 298.35, 621.34 96.6 M142.18 654.17 C311.75 457.86, 482.62 261.8, 624.44 99.23 M141.41 654.41 C325.76 446.36, 508.44 236.08, 624.52 98.83 M144.76 656.33 C279.46 502.42, 414.01 347.14, 628.02 101.09 M144.48 657.38 C240.42 543.46, 338.08 430.89, 627.36 101.59 M148.29 659.08 C316.67 466.68, 486.4 271.63, 630.42 103.37 M147.42 659.54 C340.5 436.83, 533.3 214.89, 630.96 103.66 M151.26 661.24 C297.95 492.97, 443.4 325.15, 633.64 106.3 M151.3 661.14 C339.54 445.34, 527.66 229.26, 633.2 106.91 M154.72 664.2 C322.82 466.75, 492.85 270.4, 636 110.52 M153.91 663.9 C268.02 532.42, 382.4 400.95, 635.49 110.06 M158.35 665.93 C310.46 490.62, 463.43 313.8, 638.09 112.08 M157.63 666.21 C254.24 556.1, 350.63 445.67, 638.49 112.6 M160.35 668.7 C261.25 555.17, 360.61 440.61, 641.02 116.05 M160.63 668.61 C336.96 468.22, 513.1 265.88, 640.84 116.04 M165.42 670.68 C334.91 475.09, 503.34 281.64, 644.25 119.27 M164.53 670.68 C353.22 454.54, 541.21 238.43, 643.51 119.53 M167.02 673.69 C355.68 455.93, 544.58 239.17, 646.38 121.43 M167.99 673.21 C335.03 480.26, 502.56 287.72, 646.26 121.93 M171.37 674.82 C272.2 558.43, 374.61 440.83, 648.25 125.9 M171.2 675.2 C294.79 529.9, 419.87 385.99, 648.55 125.79 M174.88 677.35 C328.59 500.71, 484.12 323.34, 651.67 129.59 M174.28 677.57 C339 488.89, 502.45 301.49, 651.09 128.62 M177.94 679.93 C367.12 464.35, 556.32 245.37, 654.54 131.75 M177.12 680.13 C343.48 491.81, 506.53 303.92, 654.31 131.69 M181.59 682.16 C302.81 541.8, 423.65 401.06, 656.39 135.49 M181 682.34 C363.4 469.74, 547.01 258.31, 656.42 134.89 M183.56 684.45 C370.23 472.14, 554.26 258.54, 659.48 138.5 M184.3 684.55 C331.34 514.41, 479.54 344.22, 659.41 137.92 M187.93 686.08 C365.63 485.78, 540.63 283.68, 661.55 141.04 M187.54 686.9 C336.71 518.15, 485.26 348.07, 662.29 140.74 M191.42 688.91 C360.08 496, 529.38 301.83, 663.74 145.04 M190.52 689.51 C321.75 537.91, 453.34 386.01, 664.39 144.42 M193.78 691.38 C335.47 531.26, 475.53 368.59, 666.1 147.25 M194.05 691.4 C306.36 561.83, 419.08 431.3, 666.9 147.94 M196.85 693.83 C314.24 555.33, 433.41 417.65, 669.1 149.61 M197.14 693.9 C338.08 528.91, 479.54 366.22, 669.78 150.61 M201.2 695.02 C387.04 480.18, 572.49 267.74, 672.84 154.34 M201.7 694.81 C333.29 544.44, 464.91 392.23, 672.16 153.33 M204.83 696.48 C353.98 523.87, 502.35 353.16, 674.87 156.34 M205.4 696.45 C330.86 554.45, 455.12 411.49, 674.42 157.4 M208.46 698.21 C329.62 559.54, 448.93 422.55, 677.36 159.09 M209.47 698.33 C316.88 572.24, 425.48 447.09, 677.76 159.38 M214.01 699.43 C388.16 495.57, 564.86 291.87, 680.65 162.59 M213.66 699.86 C309.11 590.32, 403.84 481.17, 680.3 163.05 M216.62 700.88 C317.55 588.94, 416.29 475.58, 681.92 166.15 M217.19 701.23 C347.36 549.42, 478.86 398.92, 681.9 166.72 M221.49 702.04 C383 517.93, 542.16 334.44, 683.44 170.58 M221.72 702.67 C400.72 497.18, 580.03 290.63, 683.65 170.31 M224.58 704.01 C332.57 577.49, 440.07 453.25, 685.77 173.73 M224.95 704.24 C366.24 542.61, 507.57 380.26, 686.43 173.78 M230.24 705.97 C377.66 537.6, 524 370.23, 688.92 176.68 M229.13 705.99 C334.33 588.2, 437.65 469.48, 688.99 176.98 M233.39 708.08 C335.1 588.23, 438.09 471.42, 690.72 180.75 M233.02 707.7 C405.56 511.64, 575.53 315.93, 690.77 181.18 M236.52 708.69 C363.02 562.26, 492.36 415.65, 692.2 185.32 M236.53 709.03 C401.49 519.68, 565.95 329.67, 692.7 184.57 M241.6 709.86 C386.13 542.8, 532.06 373.72, 694.89 188.43 M240.81 710.28 C345.06 589.04, 450.94 467.38, 694.89 188.13 M244.47 712.52 C336.75 608.83, 427.97 503.7, 696.65 192.57 M244.67 712.09 C421.04 512.89, 595.99 311.09, 696.66 192.72 M249.3 712.83 C339.17 608.04, 429.15 505.43, 699.56 195.33 M248.88 713.45 C354.16 593.57, 459.27 472.87, 699.33 195.81 M253.35 715.53 C401.84 543.6, 552.14 370.12, 701.56 198.78 M252.48 715.12 C398.03 546.84, 544.01 378.66, 701.91 199.37 M257.28 716.74 C423.56 523.32, 588.87 331.77, 702.69 203.26 M256.94 716.18 C347.88 609.07, 439.94 503.07, 703.15 203.34 M261.02 718.9 C407.68 548.79, 552.86 381.59, 705.79 206.84 M260.88 718.22 C413.59 544.52, 566.24 368.95, 705.47 206.74 M264.62 720.01 C390.28 575.15, 516.43 430.6, 706.66 211.43 M265.03 719.45 C428.74 529.53, 593.75 339.56, 707.29 211.12 M270.15 719.02 C403.07 567.55, 537.01 414.8, 709.23 213.67 M269.86 719.79 C375.5 595.15, 482.96 472.51, 709.46 213.89 M274.07 720.68 C372.17 608.21, 468.62 497.44, 712.47 217.43 M274.46 721.06 C381.84 595.98, 489.8 471.77, 712.31 217.35 M278.03 721.51 C440.17 534.82, 603.76 347.24, 714.28 222.05 M279.06 722.12 C440.02 537, 600.42 353.08, 714.08 221.82 M283.37 722.43 C370.55 622.76, 456.28 522.11, 716.23 225.76 M282.8 722.93 C422.25 560.72, 563.3 398.55, 716.11 224.69 M288.76 723.33 C439.12 551.19, 588.19 379.65, 718.28 228.66 M288.35 723.51 C418.13 573.6, 548.29 424.48, 718.55 228.34 M292.69 724.63 C412.64 588.39, 531.96 452.15, 720.34 232.96 M292.44 724.79 C463.64 530.25, 634.06 334.94, 719.94 232.84 M296.93 725.14 C463.02 532.69, 632.4 337.37, 721.6 237.47 M297.11 725.41 C451.35 546.44, 605.91 369.35, 721.54 237.76 M301.05 726.8 C404.17 608.05, 507.13 489.02, 721.69 241.69 M301.08 726.52 C403.83 608.65, 506.7 490.57, 722.54 242.71 M306.44 727.65 C391.3 628.21, 475.94 530.3, 723.53 246.64 M305.91 726.83 C439.14 576.24, 571.04 424.54, 723.86 246.68 M310.83 728.1 C446.27 572.71, 581.16 419.2, 724.48 251.6 M310.62 728.16 C448.09 569.39, 585.13 411.86, 725.4 251.66 M314.92 728.9 C403.64 623.61, 493.24 519.22, 725.43 256.04 M314.83 729.14 C420.62 608.55, 526.12 488.03, 726.44 255.88 M319.16 730.25 C436.64 597.74, 552.48 464.58, 728.32 259.59 M319.69 729.96 C448.94 581.77, 576.26 434.56, 727.68 260.61 M324.5 730.18 C481.1 549.67, 639.41 366.84, 728.15 265.96 M324.3 731.25 C453.65 581.41, 583.91 431.15, 728.92 265.43 M328.66 731.25 C458.28 586.87, 585.83 439.83, 729.83 268.92 M328.5 732.11 C463.6 575.28, 599.92 417.87, 730.52 269.06 M332.61 733.3 C431.57 620.55, 527.93 507.44, 732.1 274.44 M332.69 732.86 C489.53 551.33, 646.77 370.1, 731.72 274 M337.45 733.55 C482.9 567.81, 627.13 401.35, 733.24 278.67 M337.97 733.72 C472.87 579.58, 607.73 424.61, 732.96 279.41 M342.18 736.09 C496.58 555.78, 652.7 376.12, 734.23 283.07 M341.28 735.14 C493.46 560.38, 645.07 384.96, 734.26 283.49 M346.53 735.66 C497.81 558.06, 651.51 382.35, 734.69 287.96 M346.31 736.06 C481.42 581.41, 614.02 428.53, 735.75 287.98 M352.13 735.56 C446.58 625.3, 541.54 515.11, 737.16 292.86 M352.4 735.52 C488.26 576.4, 625.31 418.86, 736.44 292.9 M358.2 734.34 C474.92 597.31, 592.31 462.13, 738.25 296.45 M357.5 734.67 C493.58 576.95, 629.13 420.72, 737.83 297.09 M362.59 734.73 C469.43 610.89, 578.47 486.28, 740.46 301.31 M362.98 734.91 C511.62 562.82, 660.77 390.61, 739.92 301.37 M368.93 734.97 C464.08 623.75, 560.34 512.83, 739.52 307.68 M368.08 735.01 C473.27 611.23, 580.54 488.72, 740.25 306.83 M374.2 734.28 C515.05 571.61, 658.12 407.43, 740.87 312.97 M373.94 734.57 C499.32 590.96, 624.6 446.13, 740.83 312.77 M379.02 735.46 C495.09 601.39, 610.07 470.04, 740.79 318.7 M378.88 735.14 C459.68 644.23, 540.49 551.67, 741.04 318.63 M384.35 733.87 C492.52 610.28, 599.99 485.9, 740.86 324.35 M384.36 734.55 C479.61 625.81, 574.37 516.41, 741.78 324.21 M389.49 734.86 C530.3 573, 670.74 410.11, 742.65 329.77 M389.89 733.91 C510.14 595.75, 629.72 457.87, 741.52 329.43 M395.13 734.76 C527.4 580.63, 659.25 428.96, 741.73 335.28 M395.03 734.42 C527.49 584.33, 658.27 433.14, 742.31 335.34 M400.9 734.72 C522.37 596.21, 643.36 456.77, 743.08 340.95 M401.03 734.37 C473.33 648.53, 546.09 564.48, 742.64 340.63 M407.32 733.3 C492.37 634.02, 578.63 536.07, 742.33 346.65 M406.89 733.5 C517.12 604.27, 628.78 474.97, 742.69 346.61 M411.71 733.86 C499.45 630.81, 589.17 527.37, 742.78 351.38 M411.78 734.06 C512.4 619.01, 612.25 504.33, 743.51 352.18 M417.66 733.6 C529.7 607.36, 640.77 479.42, 744.61 358.06 M417.05 733.53 C521.13 615.33, 624.74 496.73, 743.54 357.98 M424.8 731.43 C540.67 597.11, 659.95 460.7, 744.34 363.28 M424.05 731.78 C502.95 642.03, 581.53 551.71, 744.17 363.8 M431.02 731.22 C535.88 609.93, 640.84 486.58, 744.83 368.53 M430.59 730.73 C543.07 600.57, 655.89 470.01, 744.64 369.43 M436.51 729.01 C530 621.06, 625.12 510.9, 744.44 375.58 M436.55 729.17 C554.04 594.39, 671.68 459.03, 744.59 375.24 M444.2 727.37 C544.77 612.48, 646.42 495.73, 744.26 382.34 M443.98 727.41 C512.78 648.33, 582.11 568.72, 743.96 381.87 M449.01 727.34 C531.69 631.21, 614.95 536.74, 743.25 388.46 M450.27 726.09 C520.63 643.86, 591.82 561.95, 743.14 389.49 M456.86 723.53 C546.5 622.82, 634.33 520.57, 743.14 396.47 M457.27 724.31 C553.59 614.1, 649.05 503.7, 742.46 396.52 M462.54 724.26 C553.07 620.17, 641.49 517.8, 741.89 403.46 M462.83 723 C528.6 649.57, 594.43 573.58, 740.98 403.72 M470.11 720.48 C529.71 651.79, 588.62 581.72, 740.77 410.12 M470.16 721.58 C530.89 652.04, 590.86 583.08, 739.92 410.67 M475.86 720.8 C578.71 601.77, 680.59 484.66, 740.43 417.38 M476.95 720.02 C575.32 610, 671.73 497.96, 740.29 416.7 M482.88 719.79 C562.53 627.35, 644.45 533.04, 738.56 425.09 M482.99 718.59 C554.52 638.91, 625.93 557.56, 739.62 424.27 M492.15 716.09 C560.34 637.03, 630.65 555.61, 737.67 430.54 M491.38 715.72 C573.05 622.59, 653.55 528.42, 738.07 430.58 M498.39 713.28 C554.04 648.71, 608.06 587.47, 738.59 439.16 M498.74 712.3 C553.31 652.72, 605.64 592.48, 737.91 437.83 M507.18 707.34 C590.74 615.82, 672.69 522.09, 738.15 444.93 M508.5 707.97 C600.79 602.6, 692.26 498.29, 737.55 444.29 M517.55 703.4 C574.43 636.93, 635.21 565.81, 738.32 451.61 M516.34 704.94 C564.95 648.63, 613.71 593.91, 736.93 450.95 M525.69 701.34 C601.47 612.43, 677.97 525.34, 734.24 460.96 M524.98 701.06 C598.15 617.92, 671.3 531.8, 734 460.3 M532.68 696.27 C600.95 615.76, 670.04 534.86, 730.95 470.05 M533.16 696.98 C607.63 613.66, 680.47 530.29, 731.1 470.32 M541.28 695.05 C585.23 643.58, 628.39 595.49, 727.64 479.47 M542.7 693.32 C606.39 618.7, 670.45 545.65, 728.09 480.43 M550.09 690.19 C594.1 636.98, 638.82 584.32, 723.61 489.23 M550.97 689.87 C590.18 645.81, 629.53 600.57, 724.5 488.81 M558.2 685.34 C607.66 631.96, 657.92 574.04, 721.42 500.53 M559 686.1 C596.96 642.85, 635.35 600.33, 722 499.98 M571.69 674.92 C627.32 614.24, 681.16 552.43, 716.25 510.26 M572.83 676.61 C611.39 633.45, 646.88 591.89, 717.23 510.27 M587.71 665.18 C616.4 629.68, 650.15 593.73, 714.15 520.49 M587.41 666.13 C617.52 629.66, 646.85 595.39, 712.49 521.19 M600.22 657.41 C637.81 618.25, 669.84 576.51, 701.68 543.8 M600.78 656.93 C637.29 612.11, 675.8 568.39, 700.43 542.67 M616.63 645.82 C642.72 613.55, 670.62 581, 685.06 563.22 M616.16 646.57 C635.78 621.96, 659.06 595.37, 687.54 564.67"
              stroke="#868e96" stroke-width="0.5" fill="none"></path>
        <path d="M207.22 37 C226.24 21.21, 254.9 18.24, 279.36 12.18 C303.81 6.12, 329.03 1.78, 353.97 0.64 C378.9 -0.51, 404.16 1.63, 428.95 5.32 C453.73 9.01, 479.03 14, 502.7 22.75 C526.37 31.5, 549.64 44.35, 570.99 57.83 C592.34 71.31, 612.77 86.23, 630.78 103.63 C648.8 121.04, 664.76 141.76, 679.1 162.28 C693.44 182.81, 707.09 203.84, 716.83 226.77 C726.56 249.7, 733.12 275.33, 737.51 299.88 C741.9 324.42, 743.59 349.3, 743.17 374.04 C742.75 398.77, 740.34 423.93, 735.02 448.27 C729.69 472.61, 721.79 497.39, 711.22 520.07 C700.65 542.76, 686.58 564.15, 671.58 584.36 C656.57 604.57, 639.94 624.49, 621.21 641.33 C602.48 658.17, 581.04 673.12, 559.21 685.4 C537.39 697.69, 514.27 707.34, 490.28 715.06 C466.3 722.78, 440.53 728.63, 415.32 731.72 C390.12 734.81, 364.17 735.8, 339.04 733.58 C313.91 731.37, 288.57 725.46, 264.56 718.43 C240.54 711.4, 217.06 703.18, 194.95 691.41 C172.85 679.63, 151.19 663.9, 131.91 647.77 C112.62 631.65, 94.63 614.33, 79.24 594.65 C63.86 574.97, 50.8 552.01, 39.58 529.72 C28.36 507.43, 18.46 485.02, 11.92 460.91 C5.38 436.79, 1.72 409.94, 0.34 385.05 C-1.04 360.16, -0.32 336.23, 3.62 311.58 C7.55 286.92, 14.78 260.52, 23.96 237.12 C33.15 213.73, 45.2 192.25, 58.73 171.21 C72.27 150.17, 87.93 128.69, 105.18 110.89 C122.44 93.09, 144.54 76.93, 162.25 64.41 C179.96 51.88, 201.92 39.68, 211.43 35.74 C220.94 31.79, 216.36 35.27, 219.29 40.73 M225.9 30.54 C245.42 15.74, 274.9 10.68, 299.52 5.68 C324.14 0.67, 348.31 0.08, 373.61 0.53 C398.91 0.97, 426.65 3.2, 451.32 8.33 C476 13.46, 498.67 21.07, 521.66 31.31 C544.65 41.55, 568.59 55.2, 589.28 69.75 C609.97 84.31, 628.92 100.64, 645.82 118.65 C662.71 136.66, 677.75 156.66, 690.64 177.82 C703.53 198.97, 715 221.89, 723.15 245.57 C731.29 269.25, 736.21 294.97, 739.5 319.91 C742.79 344.85, 744.77 370.29, 742.87 395.22 C740.97 420.15, 735.1 445.69, 728.12 469.47 C721.14 493.25, 712.39 516.11, 701 537.92 C689.6 559.73, 675.71 580.87, 659.77 600.34 C643.83 619.8, 625.17 638.86, 605.36 654.69 C585.56 670.53, 563.5 684.18, 540.94 695.35 C518.38 706.52, 494.17 715.37, 469.99 721.72 C445.82 728.07, 420.9 732.07, 395.89 733.45 C370.88 734.83, 345.27 733.61, 319.94 730 C294.61 726.39, 267.72 720.16, 243.92 711.77 C220.11 703.39, 198.12 692.78, 177.12 679.68 C156.11 666.59, 136.29 650, 117.87 633.2 C99.46 616.39, 81.53 599.35, 66.64 578.86 C51.76 558.37, 38.24 533.32, 28.55 510.29 C18.85 487.25, 13.45 464.92, 8.46 440.64 C3.47 416.36, -1.09 389.58, -1.37 364.62 C-1.65 339.65, 1.26 315.14, 6.8 290.86 C12.34 266.58, 21.66 241.78, 31.87 218.93 C42.08 196.09, 53.44 173.99, 68.08 153.78 C82.72 133.56, 100.84 114.51, 119.73 97.63 C138.62 80.76, 163.61 63.78, 181.41 52.53 C199.2 41.28, 218.34 32.75, 226.51 30.14 C234.68 27.53, 227.88 31.24, 230.43 36.86"
              stroke="#000000" stroke-width="1" fill="none"></path>
    </g>
    <g transform="translate(453.288065592448 141.31769801656895) rotate(0 91 22.5)">
        <text x="0" y="32" font-family="Virgil, Segoe UI Emoji" font-size="36px" fill="#000000" text-anchor="start"
              style="white-space: pre;" direction="ltr">Application
        </text>
    </g>
    <g stroke-opacity="0.8" fill-opacity="0.8"
       transform="translate(461.78592936197924 29.027719989224977) rotate(0 82.5 22.5)">
        <text x="0" y="32" font-family="Virgil, Segoe UI Emoji" font-size="36px" fill="#000000" text-anchor="start"
              style="white-space: pre;" direction="ltr">Adapters
        </text>
    </g>
    <g stroke-linecap="round">
        <g stroke-opacity="0.8" fill-opacity="0.8"
           transform="translate(546.1553397939231 70.74737175627791) rotate(0 -0.8399143148450889 33.896533836144954)">
            <path d="M-0.76 1.41 C0.83 15.85, -0.38 30.92, -0.23 66.18 M-0.13 0.27 C-0.05 15.82, -0.58 31.63, -1.75 67.52"
                  stroke="#000000" stroke-width="1" fill="none"></path>
        </g>
        <g stroke-opacity="0.8" fill-opacity="0.8"
           transform="translate(546.1553397939231 70.74737175627791) rotate(0 -0.8399143148450889 33.896533836144954)">
            <path d="M-11.86 40.43 C-7.5 46.03, -6.27 52.33, -0.48 66.23 M-11.23 39.29 C-8.33 45.88, -6.35 52.68, -2.01 67.58"
                  stroke="#000000" stroke-width="1" fill="none"></path>
        </g>
        <g stroke-opacity="0.8" fill-opacity="0.8"
           transform="translate(546.1553397939231 70.74737175627791) rotate(0 -0.8399143148450889 33.896533836144954)">
            <path d="M8.65 41.09 C8.39 46.66, 5.01 52.81, -0.48 66.23 M9.28 39.95 C7.45 46.29, 4.68 52.94, -2.01 67.58"
                  stroke="#000000" stroke-width="1" fill="none"></path>
        </g>
    </g>
    <g stroke-linecap="round">
        <g stroke-opacity="0.8" fill-opacity="0.8"
           transform="translate(545.6463908920616 185.6775027388162) rotate(0 0.37287653945736565 92.99641921662284)">
            <path d="M-1.14 -0.05 C-0.71 72.27, -0.17 144.18, 1.88 183.45 M0.71 0.5 C0.67 41.75, -0.67 83.9, 0.78 186.04"
                  stroke="#000000" stroke-width="1" fill="none"></path>
        </g>
        <g stroke-opacity="0.8" fill-opacity="0.8"
           transform="translate(545.6463908920616 185.6775027388162) rotate(0 0.37287653945736565 92.99641921662284)">
            <path d="M-10.86 157.89 C-5.85 169.2, -1.72 180.09, 1.4 184.08 M-9.01 158.44 C-6.46 163.96, -5.69 170.35, 0.3 186.67"
                  stroke="#000000" stroke-width="1" fill="none"></path>
        </g>
        <g stroke-opacity="0.8" fill-opacity="0.8"
           transform="translate(545.6463908920616 185.6775027388162) rotate(0 0.37287653945736565 92.99641921662284)">
            <path d="M9.66 157.71 C6.71 169.03, 2.87 179.99, 1.4 184.08 M11.51 158.26 C9.39 163.76, 5.5 170.19, 0.3 186.67"
                  stroke="#000000" stroke-width="1" fill="none"></path>
        </g>
    </g>
    <g transform="translate(275.7625155978711 518.9407398053074) rotate(42.05306215884884 110.99999999999997 11.5)">
        <text x="0" y="18" font-family="Helvetica, Segoe UI Emoji" font-size="20px" fill="#5f3dc4" text-anchor="start"
              style="white-space: pre;" direction="ltr">EventSourcingAggregate
        </text>
    </g>
    <g transform="translate(274.5657798841703 286.01823994459033) rotate(289.83957534151926 70 11.5)">
        <text x="0" y="18" font-family="Helvetica, Segoe UI Emoji" font-size="20px" fill="#5f3dc4" text-anchor="start"
              style="white-space: pre;" direction="ltr">MaterializdView
        </text>
    </g>
    <g transform="translate(627.610430578416 497.69022054405315) rotate(308.3056901923049 104.5 11.5)">
        <text x="0" y="18" font-family="Helvetica, Segoe UI Emoji" font-size="20px" fill="#5f3dc4" text-anchor="start"
              style="white-space: pre;" direction="ltr">StaateStoredAggregate
        </text>
    </g>
    <g transform="translate(13.940709431966297 787.2892759788112) rotate(0 543 17.5)">
        <text x="0" y="25" font-family="Virgil, Segoe UI Emoji" font-size="28px" fill="#343a40" text-anchor="start"
              style="white-space: pre;" direction="ltr">Abstracts are generalized through parameterization to provide
            greater utility
        </text>
    </g>
    <g transform="translate(688.9944422773073 263.1630545649471) rotate(55.13344332315904 63 11.5)">
        <text x="0" y="18" font-family="Helvetica, Segoe UI Emoji" font-size="20px" fill="#5f3dc4" text-anchor="start"
              style="white-space: pre;" direction="ltr">SagaManager
        </text>
    </g>
    <g transform="translate(464.6833970811647 481.8114809077388) rotate(0.6522879606998949 94 12)">
        <text x="0" y="19" font-family="Cascadia, Segoe UI Emoji" font-size="20px" fill="#5f3dc4" text-anchor="start"
              style="white-space: pre;" direction="ltr">Decider&lt;C, S, E&gt;
        </text>
    </g>
    <g transform="translate(10 859.7962339866237) rotate(0 94.5 17.5)">
        <text x="0" y="25" font-family="Virgil, Segoe UI Emoji" font-size="28px" fill="#5f3dc4" text-anchor="start"
              style="white-space: pre;" direction="ltr">C = Command
        </text>
    </g>
    <g transform="translate(623.2709486219633 362.26102687399344) rotate(83.07380439065908 58.5 12)">
        <text x="0" y="19" font-family="Cascadia, Segoe UI Emoji" font-size="20px" fill="#5f3dc4" text-anchor="start"
              style="white-space: pre;" direction="ltr">View&lt;S, E&gt;
        </text>
    </g>
    <g transform="translate(360.51829020182447 363.7054408008599) rotate(275.3874493054514 64.5 12)">
        <text x="0" y="19" font-family="Cascadia, Segoe UI Emoji" font-size="20px" fill="#5f3dc4" text-anchor="start"
              style="white-space: pre;" direction="ltr">Saga&lt;AR, A&gt;
        </text>
    </g>
    <g transform="translate(249.10158284505155 859.7071430035505) rotate(0 72 17.5)">
        <text x="0" y="25" font-family="Virgil, Segoe UI Emoji" font-size="28px" fill="#5f3dc4" text-anchor="start"
              style="white-space: pre;" direction="ltr">S = State
        </text>
    </g>
    <g transform="translate(453.9774780273435 862.980661883759) rotate(0 69.5 17.5)">
        <text x="0" y="25" font-family="Virgil, Segoe UI Emoji" font-size="28px" fill="#5f3dc4" text-anchor="start"
              style="white-space: pre;" direction="ltr">E = Event
        </text>
    </g>
    <g transform="translate(649.1761474609391 865.5611265647487) rotate(0 73.5 17.5)">
        <text x="0" y="25" font-family="Virgil, Segoe UI Emoji" font-size="28px" fill="#5f3dc4" text-anchor="start"
              style="white-space: pre;" direction="ltr">A = Action
        </text>
    </g>
    <g transform="translate(835.8404744466161 867.6374408551135) rotate(0 132.5 17.5)">
        <text x="0" y="25" font-family="Virgil, Segoe UI Emoji" font-size="28px" fill="#5f3dc4" text-anchor="start"
              style="white-space: pre;" direction="ltr">AR = Action Result
        </text>
    </g>
    <g transform="translate(239.62650408063791 936.441753424871) rotate(0 327.5 17.5)">
        <text x="0" y="25" font-family="Virgil, Segoe UI Emoji" font-size="28px" fill="#c92a2a" text-anchor="start"
              style="white-space: pre;" direction="ltr">Domain - pure declaration of the program logic
        </text>
    </g>
    <g stroke-opacity="0.7" fill-opacity="0.7"
       transform="translate(197.84617978050773 985.493673997787) rotate(0 376.5 70)">
        <text x="0" y="25" font-family="Virgil, Segoe UI Emoji" font-size="28px" fill="#c92a2a" text-anchor="start"
              style="white-space: pre;" direction="ltr">Application - orchestrates the execution of the logic:
        </text>
        <text x="0" y="60" font-family="Virgil, Segoe UI Emoji" font-size="28px" fill="#c92a2a" text-anchor="start"
              style="white-space: pre;" direction="ltr">load state from a repository,
        </text>
        <text x="0" y="95" font-family="Virgil, Segoe UI Emoji" font-size="28px" fill="#c92a2a" text-anchor="start"
              style="white-space: pre;" direction="ltr">execute logic by calling domain layer,
        </text>
        <text x="0" y="130" font-family="Virgil, Segoe UI Emoji" font-size="28px" fill="#c92a2a" text-anchor="start"
              style="white-space: pre;" direction="ltr">store the new state
        </text>
    </g>
    <g stroke-opacity="0.8" fill-opacity="0.8"
       transform="translate(210.32563127790468 1137.8181979235674) rotate(0 363 17.5)">
        <text x="0" y="25" font-family="Virgil, Segoe UI Emoji" font-size="28px" fill="#343a40" text-anchor="start"
              style="white-space: pre;" direction="ltr">Adapters - presentation, persistence, infrastructure
        </text>
    </g>
</svg>
