<svg version="1.1" xmlns="http://www.w3.org/2000/svg" viewBox="0 0 428.7522783926619 135.02434745065807" width="857.5045567853238" height="270.04869490131614">
  <!-- svg-source:excalidraw -->
  
  <defs>
    <style class="style-fonts">
      @font-face {
        font-family: "Virgil";
        src: url("https://excalidraw.com/Virgil.woff2");
      }
      @font-face {
        font-family: "Cascadia";
        src: url("https://excalidraw.com/Cascadia.woff2");
      }
    </style>
  </defs>
  <g stroke-linecap="round" transform="translate(143.19547385209637 29.47590297521151) rotate(0 73.04609026227695 47.77422223772328)"><path d="M1.83 -0.56 C55.94 0.87, 113.42 -0.48, 144.59 -1.26 M-0.43 -0.71 C29.36 -0.03, 59.79 -0.06, 146.87 0.97 M145.13 -1.31 C145.9 25.1, 144.94 50.67, 146.03 94.59 M145.83 -0.6 C146.56 20.11, 147.08 41.68, 147.06 95.94 M145.84 97.47 C107.1 95.99, 70.98 97.62, -1.37 94.23 M146.33 96.2 C110.96 97.68, 74.97 95.99, -0.2 94.63 M1.41 95.37 C-1.24 71.81, 0.29 43.88, 1.29 -0.89 M0.04 94.56 C-0.13 65.28, -0.25 36.26, -0.37 -0.37" stroke="#364fc7" stroke-width="4" fill="none"></path></g><g transform="translate(163.49641204964144 56.179437782689774) rotate(0 53.153968811035156 22.5)"><text x="53.153968811035156" y="0" font-family="Virgil, Segoe UI Emoji" font-size="36px" fill="#364fc7" text-anchor="middle" style="white-space: pre;" direction="ltr" dominant-baseline="text-before-edge">decide</text></g><g stroke-linecap="round"><g transform="translate(297.0810370916829 79.11217704050159) rotate(0 60.57290739699141 -0.5683665732381087)"><path d="M0.02 1.05 C39.73 -0.1, 74.82 -1.2, 120.11 -2.19 M-0.53 -0.86 C29.67 -0.13, 60.06 1.61, 121.67 -0.36" stroke="#364fc7" stroke-width="4" fill="none"></path></g><g transform="translate(297.0810370916829 79.11217704050159) rotate(0 60.57290739699141 -0.5683665732381087)"><path d="M93.7 11.48 C103.9 6.84, 109.59 2.5, 119.76 -2.09 M93.15 9.57 C100.55 7.12, 108.1 6.36, 121.32 -0.26" stroke="#364fc7" stroke-width="4" fill="none"></path></g><g transform="translate(297.0810370916829 79.11217704050159) rotate(0 60.57290739699141 -0.5683665732381087)"><path d="M93.31 -9.04 C103.83 -7.26, 109.63 -5.18, 119.76 -2.09 M92.77 -10.95 C100.17 -8.41, 107.81 -4.19, 121.32 -0.26" stroke="#364fc7" stroke-width="4" fill="none"></path></g></g><mask></mask><g stroke-linecap="round"><g transform="translate(14.60656182008745 109.752403112906) rotate(0 60.65726426841849 -0.34932771019134634)"><path d="M1.05 1.57 C47.47 -1.88, 94.28 -2.67, 120.35 -2.1 M-0.86 0.03 C30.48 1.17, 63.7 -0.2, 122.18 -0.01" stroke="#364fc7" stroke-width="4" fill="none"></path></g><g transform="translate(14.60656182008745 109.752403112906) rotate(0 60.65726426841849 -0.34932771019134634)"><path d="M95.07 11.91 C104.77 4.79, 114.83 0.33, 120.45 -1.15 M93.15 10.36 C100.44 8.6, 109.53 4.82, 122.28 0.94" stroke="#364fc7" stroke-width="4" fill="none"></path></g><g transform="translate(14.60656182008745 109.752403112906) rotate(0 60.65726426841849 -0.34932771019134634)"><path d="M95.01 -8.62 C104.67 -7.7, 114.75 -4.13, 120.45 -1.15 M93.09 -10.16 C100.24 -6.65, 109.35 -5.16, 122.28 0.94" stroke="#364fc7" stroke-width="4" fill="none"></path></g></g><mask></mask><g stroke-linecap="round"><g transform="translate(9.973252892494202 41.75593642507306) rotate(0 63.88911086926396 -0.039490432929596864)"><path d="M1.57 -0.3 C32.97 -1.71, 67.02 -1.97, 125.66 -0.09 M0.03 -0.89 C29.8 2.24, 57.7 1.55, 127.75 0.29" stroke="#364fc7" stroke-width="4" fill="none"></path></g><g transform="translate(9.973252892494202 41.75593642507306) rotate(0 63.88911086926396 -0.039490432929596864)"><path d="M101.31 10.73 C105.85 6.7, 113.06 3.31, 126.61 -0.57 M99.76 10.14 C106.98 9.78, 112.27 6.46, 128.7 -0.19" stroke="#364fc7" stroke-width="4" fill="none"></path></g><g transform="translate(9.973252892494202 41.75593642507306) rotate(0 63.88911086926396 -0.039490432929596864)"><path d="M100.96 -9.79 C105.6 -8.24, 112.9 -6.05, 126.61 -0.57 M99.42 -10.38 C106.61 -6.04, 111.97 -4.67, 128.7 -0.19" stroke="#364fc7" stroke-width="4" fill="none"></path></g></g><mask></mask><g transform="translate(317.75679396826297 51.02796942251439) rotate(0 31.919967651367188 12.5)"><text x="0" y="0" font-family="Virgil, Segoe UI Emoji" font-size="20px" fill="#364fc7" text-anchor="start" style="white-space: pre;" direction="ltr" dominant-baseline="text-before-edge">events</text></g><g transform="translate(17.421109302920172 10.464823027423336) rotate(0.6628806179514432 40.249969482421875 12.5)"><text x="0" y="0" font-family="Virgil, Segoe UI Emoji" font-size="20px" fill="#364fc7" text-anchor="start" style="white-space: pre;" direction="ltr" dominant-baseline="text-before-edge">command</text></g><g transform="translate(25.46703636479822 81.13964214101179) rotate(359.46502954282926 28.869972229003906 12.5)"><text x="0" y="0" font-family="Virgil, Segoe UI Emoji" font-size="20px" fill="#364fc7" text-anchor="start" style="white-space: pre;" direction="ltr" dominant-baseline="text-before-edge">state</text></g></svg>