<svg version="1.1" xmlns="http://www.w3.org/2000/svg" viewBox="0 0 1179.1353498186388 304.73380689400847" width="1179.1353498186388" height="304.73380689400847">
  <!-- svg-source:excalidraw -->
  
  <defs>
    <style class="style-fonts">
      @font-face {
        font-family: "Virgil";
        src: url("https://excalidraw.com/Virgil.woff2");
      }
      @font-face {
        font-family: "Cascadia";
        src: url("https://excalidraw.com/Cascadia.woff2");
      }
    </style>
  </defs>
  <g stroke-linecap="round" transform="translate(10 119.79504438836443) rotate(0 46.86684744698664 46.5806797572543)"><path d="M47.91 0.77 C55.8 0.36, 65.87 3.96, 72.84 8.67 C79.8 13.37, 86.32 21.47, 89.72 29.01 C93.12 36.54, 94.61 45.56, 93.24 53.88 C91.87 62.2, 87.34 72.48, 81.5 78.92 C75.66 85.35, 66.39 90.36, 58.21 92.5 C50.03 94.64, 40.44 94.42, 32.44 91.75 C24.45 89.08, 15.5 82.99, 10.24 76.48 C4.98 69.96, 1.82 61.15, 0.87 52.67 C-0.08 44.19, 0.97 33.21, 4.53 25.6 C8.09 17.99, 14.18 11.37, 22.22 7 C30.26 2.64, 46.77 0.26, 52.77 -0.59 C58.77 -1.45, 58.45 1.04, 58.23 1.86 M47.1 -0.15 C55.12 -1.02, 63.16 1.97, 70.04 6.62 C76.92 11.27, 84.41 19.9, 88.38 27.75 C92.36 35.6, 95.04 45.79, 93.89 53.7 C92.74 61.62, 86.95 68.88, 81.46 75.25 C75.97 81.62, 69.03 89.16, 60.97 91.93 C52.91 94.7, 41.01 94.35, 33.11 91.88 C25.2 89.41, 18.86 83.6, 13.53 77.12 C8.21 70.63, 2.54 61.4, 1.14 52.99 C-0.26 44.57, 1.85 33.97, 5.13 26.62 C8.42 19.28, 13.8 13.4, 20.83 8.92 C27.85 4.45, 43.01 0.85, 47.3 -0.23 C51.6 -1.31, 47 1.79, 46.58 2.44" stroke="#364fc7" stroke-width="4" fill="none"></path></g><g stroke-linecap="round" transform="translate(413.54823521205367 104.30169625158328) rotate(0 60.03012520926336 60.6298828125)"><path d="M60.01 -0.52 C80.83 22.48, 105.91 45.03, 118.65 62.48 M61.69 -0.38 C75.81 17.38, 91.93 32.34, 120.76 61.95 M119.99 61.38 C106.85 73.97, 93.16 86.33, 60.56 122.2 M119.1 61.58 C97.59 84.05, 77.39 105.12, 61.45 122.15 M59.88 120.56 C35.9 96.89, 11.27 75.5, 1.93 61.26 M61.22 120.43 C45.54 106.63, 30.8 92.37, -0.05 60.4 M-1.72 59.82 C16.17 46.6, 30.6 29.85, 59.58 1.96 M0.57 61.57 C23.07 37.08, 47.4 14.9, 61.8 0.94" stroke="#364fc7" stroke-width="4" fill="none"></path></g><g stroke-linecap="round"><g transform="translate(112.09830026093289 171.59566866585078) rotate(0 39.08534497951865 0.6768271619137067)"><path d="M1.81 1.72 C20.07 2.08, 40.33 0.43, 76.31 0.65 M0.5 -0.42 C24.64 0.65, 48.26 -0.12, 77.67 0.67" stroke="#364fc7" stroke-width="4" fill="none"></path></g><g transform="translate(112.09830026093289 171.59566866585078) rotate(0 39.08534497951865 0.6768271619137067)"><path d="M51.14 12.22 C56.69 9.47, 64.21 4.85, 76.84 -0.26 M49.83 10.08 C58.78 7.92, 67.14 3.59, 78.2 -0.25" stroke="#364fc7" stroke-width="4" fill="none"></path></g><g transform="translate(112.09830026093289 171.59566866585078) rotate(0 39.08534497951865 0.6768271619137067)"><path d="M51.45 -8.3 C56.86 -5.69, 64.3 -4.96, 76.84 -0.26 M50.14 -10.44 C58.86 -6.17, 67.12 -4.09, 78.2 -0.25" stroke="#364fc7" stroke-width="4" fill="none"></path></g></g><mask></mask><g stroke-linecap="round"><g transform="translate(319.13556780133945 169.73903525548758) rotate(0 40.70301554954858 0.7413317807007616)"><path d="M-1.3 -0.27 C18.62 -0.57, 40.28 -1.14, 82.7 2 M0.46 -0.39 C17 -0.33, 35.6 -0.09, 82.22 1.84" stroke="#364fc7" stroke-width="4" fill="none"></path></g><g transform="translate(319.13556780133945 169.73903525548758) rotate(0 40.70301554954858 0.7413317807007616)"><path d="M52.36 10.76 C59.59 8.01, 68.51 5.05, 82.04 2.85 M54.11 10.64 C58.96 8.51, 65.83 6.56, 81.56 2.7" stroke="#364fc7" stroke-width="4" fill="none"></path></g><g transform="translate(319.13556780133945 169.73903525548758) rotate(0 40.70301554954858 0.7413317807007616)"><path d="M53.14 -9.74 C60.09 -7.69, 68.83 -5.84, 82.04 2.85 M54.89 -9.86 C59.5 -7.56, 66.2 -5.09, 81.56 2.7" stroke="#364fc7" stroke-width="4" fill="none"></path></g></g><mask></mask><g stroke-linecap="round" transform="translate(840.6411089215945 122.73111635947066) rotate(0 46.26388549804693 44.78179931640625)"><path d="M-0.29 0.97 C18.67 -2.48, 37.73 0.56, 91.69 -0.64 M-0.11 0.36 C31.91 -0.71, 62.33 0.86, 92.77 -0.35 M92.26 1.65 C91.44 21.04, 92.56 43.96, 92.05 90.28 M93.01 -0.04 C92.28 22.06, 91.11 44.12, 92.1 89.47 M92.03 90.04 C63.91 89.29, 38.46 88.76, 1.19 88 M92.49 89.49 C72.88 88.92, 55.05 88.96, -0.32 89.47 M-0.48 91.13 C-1.02 60.78, 1.94 35.79, 0.81 -0.42 M0.25 90.2 C-1.27 62.27, -0.86 35.26, 0.2 -0.95" stroke="#364fc7" stroke-width="4" fill="none"></path></g><g stroke-linecap="round" transform="translate(647.357814243862 120.16573172172866) rotate(0 46.86684744698664 46.5806797572543)"><path d="M35.3 1.2 C42.95 -1.3, 52.86 -0.03, 60.68 2.56 C68.5 5.16, 76.78 10.33, 82.22 16.78 C87.65 23.23, 92.05 33.06, 93.28 41.27 C94.51 49.49, 93.32 58.43, 89.59 66.07 C85.86 73.71, 78.15 82.65, 70.9 87.11 C63.66 91.57, 54.59 93.18, 46.13 92.8 C37.68 92.43, 27.38 89.51, 20.18 84.86 C12.99 80.21, 6.08 72.62, 2.96 64.92 C-0.16 57.21, 0.01 46.85, 1.45 38.62 C2.88 30.39, 4.94 21.96, 11.57 15.54 C18.21 9.11, 35.08 2.61, 41.23 0.09 C47.39 -2.44, 48.54 -0.44, 48.52 0.37 M58.6 0.29 C66.74 1.34, 76.26 7.65, 81.95 13.9 C87.65 20.15, 91.34 29.54, 92.77 37.81 C94.2 46.08, 93.71 55.65, 90.51 63.51 C87.31 71.37, 80.67 80.03, 73.55 84.97 C66.43 89.91, 56.16 92.9, 47.8 93.15 C39.44 93.4, 30.35 90.91, 23.39 86.49 C16.43 82.06, 10.13 73.84, 6.03 66.61 C1.93 59.39, -1.73 51.31, -1.22 43.14 C-0.71 34.97, 3.6 24.58, 9.07 17.6 C14.54 10.63, 23.41 3.95, 31.58 1.28 C39.75 -1.38, 53.69 1.53, 58.07 1.62 C62.46 1.7, 58.12 1.07, 57.91 1.78" stroke="#364fc7" stroke-width="4" fill="none"></path></g><g stroke-linecap="round" transform="translate(1049.075099400112 112.70916792352068) rotate(0 60.03012520926336 60.6298828125)"><path d="M59.94 -1.64 C82.29 24.97, 106.27 46.78, 120.85 59.6 M61.51 -0.74 C77.97 18.7, 96.19 35.6, 119.53 60.62 M119.31 59.97 C107.82 74.07, 94.45 87.76, 59.85 119.68 M120.52 61.36 C101.95 79.74, 84.52 96.99, 60.93 121.39 M59.48 121.31 C45.12 104.97, 30.03 87.92, -1.93 62.52 M60.18 121.26 C47.18 107.41, 32.67 93.43, 0.01 60.72 M-1.27 59.15 C23.96 38.49, 45.2 15.86, 61.03 1.08 M-0.79 60.69 C19.82 39.92, 40.75 18.96, 60.78 0.56" stroke="#364fc7" stroke-width="4" fill="none"></path></g><g stroke-linecap="round"><g transform="translate(749.4051765050244 172.06419735115628) rotate(0 36.72227234487673 0.15601090239601945)"><path d="M-1.64 -1.72 C22.96 0.15, 42.48 2.37, 74.06 2 M-0.74 -0.48 C22.67 0.45, 43.33 0.28, 75.08 1.19" stroke="#364fc7" stroke-width="4" fill="none"></path></g><g transform="translate(749.4051765050244 172.06419735115628) rotate(0 36.72227234487673 0.15601090239601945)"><path d="M45.03 9.09 C56.14 7.37, 62.21 6.25, 73.68 1.12 M45.93 10.33 C55.68 8.12, 62.73 4.56, 74.7 0.31" stroke="#364fc7" stroke-width="4" fill="none"></path></g><g transform="translate(749.4051765050244 172.06419735115628) rotate(0 36.72227234487673 0.15601090239601945)"><path d="M45.49 -11.43 C56.57 -7.29, 62.51 -2.55, 73.68 1.12 M46.39 -10.18 C56.09 -6.46, 63 -4.08, 74.7 0.31" stroke="#364fc7" stroke-width="4" fill="none"></path></g></g><mask></mask><g stroke-linecap="round"><g transform="translate(954.7552926199783 173.1852434474938) rotate(0 40.8666483272126 2.187927797648399)"><path d="M-1.72 1.4 C28.23 1.32, 58.95 1.85, 83.46 3.47 M-0.48 0.83 C28.35 1.51, 55.67 2.72, 82.65 3.55" stroke="#364fc7" stroke-width="4" fill="none"></path></g><g transform="translate(954.7552926199783 173.1852434474938) rotate(0 40.8666483272126 2.187927797648399)"><path d="M52.4 14.25 C63.27 9.2, 74.83 5.21, 82.58 3.33 M53.65 13.68 C63.91 9.58, 72.73 6.43, 81.77 3.41" stroke="#364fc7" stroke-width="4" fill="none"></path></g><g transform="translate(954.7552926199783 173.1852434474938) rotate(0 40.8666483272126 2.187927797648399)"><path d="M53.1 -6.26 C63.61 -4.17, 74.93 -1.02, 82.58 3.33 M54.34 -6.83 C64.48 -4.03, 73.06 -0.29, 81.77 3.41" stroke="#364fc7" stroke-width="4" fill="none"></path></g></g><mask></mask><g stroke-linecap="round"><g transform="translate(546.6956040866129 161.1239000259618) rotate(0 43.357268237768665 0.4569012098905887)"><path d="M0.94 -0.9 C30.83 -1.14, 62.26 2.59, 85.88 0.58 M0.83 0.32 C17.37 0.53, 35.32 0.24, 84.6 1.83" stroke="#364fc7" stroke-width="4" fill="none"></path></g><g transform="translate(546.6956040866129 161.1239000259618) rotate(0 43.357268237768665 0.4569012098905887)"><path d="M57.09 10.43 C65.89 5.83, 76.2 5.13, 85.49 0.05 M56.98 11.65 C61.88 9.64, 68.22 6.91, 84.21 1.29" stroke="#364fc7" stroke-width="4" fill="none"></path></g><g transform="translate(546.6956040866129 161.1239000259618) rotate(0 43.357268237768665 0.4569012098905887)"><path d="M57.64 -10.09 C66.18 -7.02, 76.29 -0.06, 85.49 0.05 M57.53 -8.86 C62.37 -6.66, 68.6 -5.18, 84.21 1.29" stroke="#364fc7" stroke-width="4" fill="none"></path></g></g><mask></mask><g transform="translate(48.19896589006703 149.22654550443576) rotate(0 11.591995239257812 22.5)"><text x="11.591995239257812" y="0" font-family="Virgil, Segoe UI Emoji" font-size="36px" fill="#364fc7" text-anchor="middle" style="white-space: pre;" direction="ltr" dominant-baseline="text-before-edge">C</text></g><g transform="translate(462.18163190569203 144.56374052241677) rotate(0 10.944000244140625 22.5)"><text x="10.944000244140625" y="0" font-family="Virgil, Segoe UI Emoji" font-size="36px" fill="#364fc7" text-anchor="middle" style="white-space: pre;" direction="ltr" dominant-baseline="text-before-edge">S</text></g><g transform="translate(681.6141880580361 145.20465325958185) rotate(0 11.591995239257812 22.5)"><text x="11.591995239257812" y="0" font-family="Virgil, Segoe UI Emoji" font-size="36px" fill="#364fc7" text-anchor="middle" style="white-space: pre;" direction="ltr" dominant-baseline="text-before-edge">C</text></g><g transform="translate(874.9049944196414 145.0129156758769) rotate(0 12.131996154785156 22.5)"><text x="12.131996154785156" y="0" font-family="Virgil, Segoe UI Emoji" font-size="36px" fill="#364fc7" text-anchor="middle" style="white-space: pre;" direction="ltr" dominant-baseline="text-before-edge">E</text></g><g transform="translate(1098.4358607700897 154.49998300443553) rotate(0 10.944000244140625 22.5)"><text x="10.944000244140625" y="0" font-family="Virgil, Segoe UI Emoji" font-size="36px" fill="#364fc7" text-anchor="middle" style="white-space: pre;" direction="ltr" dominant-baseline="text-before-edge">S</text></g><g stroke-linecap="round"><g transform="translate(579.97072061794 294.3922991056886) rotate(0 178.2459931349564 -1.954700061320068)"><path d="M0.05 -0.64 C138.12 0.58, 277.44 -2.08, 355.81 -4.22 M-0.38 0.32 C139.91 -1.94, 279.48 -3.55, 356.87 -3.24" stroke="#364fc7" stroke-width="1" fill="none"></path></g><g transform="translate(579.97072061794 294.3922991056886) rotate(0 178.2459931349564 -1.954700061320068)"><path d="M356.96 11.01 C355.56 7.37, 355.64 0.1, 356.19 -3.82 M356.46 12.13 C357.42 5.86, 357.55 -0.19, 357.43 -2.67" stroke="#364fc7" stroke-width="1" fill="none"></path></g><g transform="translate(579.97072061794 294.3922991056886) rotate(0 178.2459931349564 -1.954700061320068)"><path d="M356.89 -18.99 C355.53 -10.91, 355.63 -6.45, 356.19 -3.82 M356.39 -17.87 C357.42 -12.4, 357.59 -6.72, 357.43 -2.67" stroke="#364fc7" stroke-width="1" fill="none"></path></g></g><mask></mask><g stroke-linecap="round"><g transform="translate(581.050467969095 293.6182578524629) rotate(0 -193.42080651044188 0.12252240659097424)"><path d="M-1.09 0.41 C-89.74 -1.43, -180.91 0.12, -386.59 -0.87 M-0.25 -0.01 C-145.52 1.6, -289.97 1.37, -385.42 0.02" stroke="#364fc7" stroke-width="1" fill="none"></path></g><g transform="translate(581.050467969095 293.6182578524629) rotate(0 -193.42080651044188 0.12252240659097424)"><path d="M-386.67 -14.46 C-384.28 -12.9, -384.96 -7.27, -386.69 -0.51 M-385.6 -14.99 C-386.08 -9.47, -385.5 -3.9, -385.2 0.62" stroke="#364fc7" stroke-width="1" fill="none"></path></g><g transform="translate(581.050467969095 293.6182578524629) rotate(0 -193.42080651044188 0.12252240659097424)"><path d="M-386.95 15.54 C-384.24 10.04, -384.86 8.62, -386.69 -0.51 M-385.87 15.01 C-386.24 9.25, -385.56 3.54, -385.2 0.62" stroke="#364fc7" stroke-width="1" fill="none"></path></g></g><mask></mask><g transform="translate(432.88461959430447 256.2522057427302) rotate(0 229.92190551757812 17.5)"><text x="0" y="0" font-family="Virgil, Segoe UI Emoji" font-size="28px" fill="#364fc7" text-anchor="start" style="white-space: pre;" direction="ltr" dominant-baseline="text-before-edge">event sourced information system</text></g><g stroke-linecap="round"><g transform="translate(789.166740774667 55.99917878133533) rotate(0 186.53484748245899 -0.17129517906687397)"><path d="M-0.7 1.15 C75.59 -0.46, 149.53 -0.98, 372.64 -0.8 M0.29 -0.18 C110.85 1.36, 221.69 1.22, 373.77 -1.5" stroke="#364fc7" stroke-width="1" fill="none"></path></g><g transform="translate(789.166740774667 55.99917878133533) rotate(0 186.53484748245899 -0.17129517906687397)"><path d="M373.12 14.92 C374.47 9.56, 372.83 6.13, 373.07 -1.3 M374.33 13.28 C373.84 8.95, 373.74 4.67, 374.46 -2.16" stroke="#364fc7" stroke-width="1" fill="none"></path></g><g transform="translate(789.166740774667 55.99917878133533) rotate(0 186.53484748245899 -0.17129517906687397)"><path d="M372.7 -15.08 C373.9 -14.39, 372.34 -11.77, 373.07 -1.3 M373.91 -16.72 C373.65 -12.13, 373.67 -7.5, 374.46 -2.16" stroke="#364fc7" stroke-width="1" fill="none"></path></g></g><mask></mask><g stroke-linecap="round"><g transform="translate(786.7150819299918 55.48779989744594) rotate(0 -185.37055723580352 1.1898788930907358)"><path d="M1.16 0.34 C-82.21 -1.64, -164 -0.61, -371.2 2.82 M-0.18 -0.01 C-124.19 1.99, -248.16 3.56, -371.9 2.87" stroke="#364fc7" stroke-width="1" fill="none"></path></g><g transform="translate(786.7150819299918 55.48779989744594) rotate(0 -185.37055723580352 1.1898788930907358)"><path d="M-370.48 -11.71 C-372.85 -10.01, -373.25 -6.24, -371.7 2.83 M-372.12 -12.14 C-372.1 -7.17, -371.93 -1.41, -372.56 2.89" stroke="#364fc7" stroke-width="1" fill="none"></path></g><g transform="translate(786.7150819299918 55.48779989744594) rotate(0 -185.37055723580352 1.1898788930907358)"><path d="M-370.49 18.29 C-372.79 13.41, -373.2 10.6, -371.7 2.83 M-372.13 17.86 C-371.88 12.8, -371.71 8.54, -372.56 2.89" stroke="#364fc7" stroke-width="1" fill="none"></path></g></g><mask></mask><g transform="translate(629.4152855424463 10) rotate(0 226.18389892578125 17.5)"><text x="0" y="0" font-family="Virgil, Segoe UI Emoji" font-size="28px" fill="#364fc7" text-anchor="start" style="white-space: pre;" direction="ltr" dominant-baseline="text-before-edge">state stored information system</text></g><g transform="translate(114.483944138575 135.24971008300713) rotate(0 29.52996826171875 12.5)"><text x="0" y="0" font-family="Virgil, Segoe UI Emoji" font-size="20px" fill="#364fc7" text-anchor="start" style="white-space: pre;" direction="ltr" dominant-baseline="text-before-edge">decide</text></g><g transform="translate(749.0439010070643 137.9914771185979) rotate(0 29.52996826171875 12.5)"><text x="0" y="0" font-family="Virgil, Segoe UI Emoji" font-size="20px" fill="#364fc7" text-anchor="start" style="white-space: pre;" direction="ltr" dominant-baseline="text-before-edge">decide</text></g><g transform="translate(322.9307892991653 137.8643883599177) rotate(0 29.569969177246094 12.5)"><text x="0" y="0" font-family="Virgil, Segoe UI Emoji" font-size="20px" fill="#364fc7" text-anchor="start" style="white-space: pre;" direction="ltr" dominant-baseline="text-before-edge">evolve</text></g><g transform="translate(960.3086850782449 142.67029656304226) rotate(0 29.569969177246094 12.5)"><text x="0" y="0" font-family="Virgil, Segoe UI Emoji" font-size="20px" fill="#364fc7" text-anchor="start" style="white-space: pre;" direction="ltr" dominant-baseline="text-before-edge">evolve</text></g><g stroke-linecap="round" transform="translate(848.2077370810143 133.2269004883915) rotate(0 46.263885498046875 44.78179931640625)"><path d="M1.12 -0.8 C19.83 -1.88, 42.89 0.21, 91.3 -1.64 M-0.84 0.5 C18.63 0.55, 38.76 1.75, 92.7 -0.31 M92.14 1.15 C93.87 32.08, 92.5 64.05, 94.12 88.76 M93.03 -0.65 C92.55 20.44, 92.28 38.61, 92.03 89.97 M94.26 87.66 C62.09 90.48, 30.64 90.4, 1.1 91.14 M93.11 90.37 C68.81 88.75, 47.03 87.97, 0.88 90.43 M-1.2 91.22 C-1.93 58.55, -0.67 24.72, -1.63 1.63 M0.22 88.74 C-1.09 62.49, -0.9 34.52, -0.97 -0.94" stroke="#364fc7" stroke-width="4" fill="none"></path></g><g stroke-linecap="round" transform="translate(833.5177956747643 113.87353829899257) rotate(0 46.263885498046875 44.78179931640625)"><path d="M-0.93 1.68 C31.01 0.81, 62.66 -0.75, 90.71 0.09 M0.93 -0.65 C36.94 -0.64, 73.27 -1.09, 92.89 0.56 M91.66 -0.46 C91.76 28.83, 92.21 56.04, 90.77 87.99 M92.71 -0.48 C92.17 22.19, 91.74 44.64, 92.33 90.11 M92.54 90.56 C69.88 89.03, 45.65 89.8, -1.77 90.31 M93.32 89.89 C62.38 89.12, 35.08 89.84, -0.8 89.64 M-1.11 90.25 C-1.57 60.09, -1.91 25.52, 1.83 1.41 M0.45 89.31 C-0.33 56.95, 1.08 24.98, -0.23 -0.79" stroke="#364fc7" stroke-width="4" fill="none"></path></g><g stroke-linecap="round" transform="translate(208.5076250348758 126.78237359891864) rotate(0 46.263885498046875 44.78179931640625)"><path d="M-0.05 1.59 C24.91 0.81, 54.36 0.53, 93.21 0.25 M0.97 0.1 C23.92 -1.13, 47.11 -1.63, 92.61 0.65 M91.69 -0.77 C92.38 26.64, 92.68 53.22, 93.99 88.09 M93.2 -0.11 C94.05 19.02, 93.36 38.51, 92.76 88.73 M90.68 91.54 C61.46 88.93, 29.64 90.5, -0.93 89.5 M92.64 89.74 C72.52 89.9, 53.4 89.71, 0.26 89.57 M0.4 91.55 C1.97 65.46, 0.73 39.37, -1.08 -0.04 M-0.29 90.12 C-0.78 63.61, -0.22 39.47, 0.91 0.54" stroke="#364fc7" stroke-width="4" fill="none"></path></g><g transform="translate(242.77151053292266 149.0641729153249) rotate(0 12.131996154785156 22.5)"><text x="12.131996154785156" y="0" font-family="Virgil, Segoe UI Emoji" font-size="36px" fill="#364fc7" text-anchor="middle" style="white-space: pre;" direction="ltr" dominant-baseline="text-before-edge">E</text></g><g stroke-linecap="round" transform="translate(216.07425319429558 132.97450104381142) rotate(0 46.263885498046875 44.78179931640625)"><path d="M-1.6 1.66 C37.6 0.64, 73.18 -0.48, 91.6 -0.43 M0.43 -0.48 C34.43 -1.07, 68.66 0.55, 92.55 -0.88 M93.17 -0.46 C93.1 28.63, 93.62 57.74, 90.73 91.42 M93.22 0.22 C93.13 23.96, 93.36 45.28, 92.9 90.41 M92.64 88.39 C58.81 90.87, 25.22 90.41, -1.84 90.41 M91.75 89.99 C65.02 89.96, 39.09 89.73, -0.26 89.18 M1.63 89.97 C0.21 58.89, -1.26 30.51, -0.35 1.85 M0.04 88.9 C0.87 69.21, 1.16 48.4, -0.01 -0.6" stroke="#364fc7" stroke-width="4" fill="none"></path></g><g stroke-linecap="round" transform="translate(201.38431178804558 117.92479553844032) rotate(0 46.263885498046875 44.78179931640625)"><path d="M1.66 1.34 C28.91 1.42, 55.33 -0.18, 92.1 1.41 M-0.48 0.14 C35.77 -0.32, 74.15 -0.37, 91.64 0.31 M92.07 0.94 C91.2 24.59, 90.7 44.45, 94.38 88.71 M92.74 0 C93.33 33.11, 91.59 66.14, 93.37 90.15 M91.35 89.04 C73.71 88.69, 54.04 87.78, 0.85 89.37 M92.95 88.91 C63.93 89.11, 34.85 88.58, -0.38 89.86 M0.41 89.96 C-2.06 59.81, -0.93 31.87, 1.85 -1.34 M-0.67 90.17 C0 66.18, 0.04 40.96, -0.6 0.26" stroke="#364fc7" stroke-width="4" fill="none"></path></g></svg>